<svg width="800" height="356" viewBox="0 0 800 356" fill="none" xmlns="http://www.w3.org/2000/svg">
<rect width="800" height="356" fill="#EAEFF3"/>
<path d="M467 155.531C467 192.278 437.224 222.062 400.5 222.062C363.776 222.062 334 192.278 334 155.531C334 118.784 363.776 89 400.5 89C437.224 89 467 118.784 467 155.531Z" stroke="#CAD5F4" stroke-width="16"/>
<path d="M399.952 120.458L407.7 144.314H432.774L412.489 159.058L420.237 182.915L399.952 168.171L379.667 182.915L387.415 159.058L367.13 144.314H392.204L399.952 120.458Z" fill="#CAD5F4"/>
<path d="M455.279 197.181V275C434.618 256.503 418.26 246.852 401.596 246.496C384.566 246.132 367.216 255.474 344.625 275V202.661L370.919 220.198L412.551 227.87L442.132 212.525L455.279 197.181Z" fill="#CAD5F4"/>
<path d="M399.404 256.367L344.625 273.904L378.588 230.062C389.544 230.793 409.374 227.76 429.533 238.282C449.692 248.805 448.706 268.424 455.279 273.904L399.404 256.367Z" fill="#CAD5F4"/>
<circle cx="394" cy="157" r="63" stroke="#485C90" stroke-width="10"/>
<path d="M393.5 125L400.572 146.766H423.458L404.943 160.218L412.015 181.984L393.5 168.532L374.985 181.984L382.057 160.218L363.542 146.766H386.428L393.5 125Z" fill="#485C90"/>
<path d="M444 195V266C425.141 249.124 410.211 240.319 395 239.994C379.456 239.662 363.62 248.185 343 266V200L367 216L405 223L432 209L444 195Z" fill="#485C90"/>
<path d="M393 249L343 265L374 225C384 225.667 402.1 222.9 420.5 232.5C438.9 242.1 438 260 444 265L393 249Z" fill="#485C90"/>
</svg>
