<svg width="292" height="292" viewBox="0 0 292 292" fill="none" xmlns="http://www.w3.org/2000/svg">
<g clip-path="url(#clip0_15_18)">
<path d="M277.871 18.8387H235.484V0H59.276L0 59.276V292H235.484V113.032H277.871C285.661 113.032 292 106.693 292 98.9032V32.9677C292 25.1779 285.661 18.8387 277.871 18.8387ZM56.5161 16.0788V56.5161H16.0788L56.5161 16.0788ZM226.065 282.581H9.41935V65.9355H65.9355V9.41935H226.065V18.8387H108.323C100.533 18.8387 94.1935 25.1779 94.1935 32.9677V98.9032C94.1935 106.693 100.533 113.032 108.323 113.032H226.065V282.581ZM282.581 98.9032C282.581 101.498 280.466 103.613 277.871 103.613H108.323C105.728 103.613 103.613 101.498 103.613 98.9032V32.9677C103.613 30.3727 105.728 28.2581 108.323 28.2581H277.871C280.466 28.2581 282.581 30.3727 282.581 32.9677V98.9032Z" fill="#485C90"/>
<path d="M143.645 37.6774H113.032V65.9354V70.6451V94.1935H122.452V70.6451H143.645C152.735 70.6451 160.129 63.2509 160.129 54.1612C160.129 45.0716 152.735 37.6774 143.645 37.6774ZM143.645 61.2258H122.452V47.0967H143.645C147.54 47.0967 150.71 50.2663 150.71 54.1612C150.71 58.0561 147.54 61.2258 143.645 61.2258Z" fill="#485C90"/>
<path d="M28.2581 75.3549H18.8387V84.7742H28.2581V75.3549Z" fill="#485C90"/>
<path d="M47.0967 75.3549H37.6774V84.7742H47.0967V75.3549Z" fill="#485C90"/>
<path d="M28.2581 94.1936H18.8387V103.613H28.2581V94.1936Z" fill="#485C90"/>
<path d="M188.387 37.6774H169.548V94.1935H188.387C203.971 94.1935 216.645 81.5198 216.645 65.9354C216.645 50.3511 203.971 37.6774 188.387 37.6774ZM188.387 84.7741H178.968V47.0967H188.387C198.777 47.0967 207.226 55.5459 207.226 65.9354C207.226 76.325 198.777 84.7741 188.387 84.7741Z" fill="#485C90"/>
<path d="M226.065 94.1935H235.484V70.6451H263.742V61.2258H235.484V47.0967H273.161V37.6774H226.065V94.1935Z" fill="#485C90"/>
<path d="M94.1935 145.567V149.848C94.1935 154.426 95.5358 158.862 98.0743 162.668L112.081 183.677L83.8228 226.065H51.3732C38.6288 226.065 28.2581 236.435 28.2581 249.18V250.046C28.2581 262.791 38.6288 273.161 51.3732 273.161C59.1206 273.161 66.3122 269.314 70.6075 262.866L88.8669 235.484H146.622L164.876 262.866C169.172 269.314 176.363 273.161 184.111 273.161C196.855 273.161 207.226 262.791 207.226 250.046V249.18C207.226 236.435 196.855 226.065 184.111 226.065H151.661L123.403 183.677L137.41 162.668C139.948 158.857 141.29 154.426 141.29 149.848V145.567C141.29 132.822 130.92 122.452 118.175 122.452H117.309C104.564 122.452 94.1935 132.822 94.1935 145.567ZM62.7706 257.643C60.2273 261.463 55.9651 263.742 51.3732 263.742C43.8235 263.742 37.6774 257.596 37.6774 250.046V249.18C37.6774 241.63 43.8235 235.484 51.3732 235.484H77.5448L62.7706 257.643ZM184.111 235.484C191.66 235.484 197.806 241.63 197.806 249.18V250.046C197.806 257.596 191.66 263.742 184.111 263.742C179.519 263.742 175.261 261.463 172.713 257.643L157.939 235.484H184.111ZM140.339 226.065H95.1402L117.742 192.169L140.339 226.065ZM103.613 145.567C103.613 138.017 109.759 131.871 117.309 131.871H118.175C125.725 131.871 131.871 138.017 131.871 145.567V149.848C131.871 152.561 131.075 155.189 129.573 157.445L117.742 175.186L105.911 157.44C104.409 155.189 103.613 152.561 103.613 149.848V145.567Z" fill="#485C90"/>
<path d="M122.452 244.903H113.032V254.323H122.452V244.903Z" fill="#485C90"/>
<path d="M141.29 244.903H131.871V254.323H141.29V244.903Z" fill="#485C90"/>
<path d="M103.613 244.903H94.1936V254.323H103.613V244.903Z" fill="#485C90"/>
</g>
<defs>
<clipPath id="clip0_15_18">
<rect width="292" height="292" fill="white"/>
</clipPath>
</defs>
</svg>
