<svg width="800" height="356" viewBox="0 0 800 356" fill="none" xmlns="http://www.w3.org/2000/svg">
<path d="M443.403 136.129H429.613V130H372.285L353 149.285V225H429.613V166.774H443.403C445.938 166.774 448 164.712 448 162.177V140.726C448 138.191 445.938 136.129 443.403 136.129ZM371.387 135.231V148.387H358.231L371.387 135.231ZM426.548 221.935H356.065V151.452H374.452V133.065H426.548V136.129H388.242C385.708 136.129 383.645 138.191 383.645 140.726V162.177C383.645 164.712 385.708 166.774 388.242 166.774H426.548V221.935ZM444.935 162.177C444.935 163.022 444.247 163.71 443.403 163.71H388.242C387.398 163.71 386.71 163.022 386.71 162.177V140.726C386.71 139.882 387.398 139.194 388.242 139.194H443.403C444.247 139.194 444.935 139.882 444.935 140.726V162.177Z" fill="#485C90"/>
<path d="M399.734 142.258H389.774V151.452V152.984V160.645H392.839V152.984H399.734C402.691 152.984 405.097 150.578 405.097 147.621C405.097 144.664 402.691 142.258 399.734 142.258ZM399.734 149.919H392.839V145.323H399.734C401.001 145.323 402.032 146.354 402.032 147.621C402.032 148.888 401.001 149.919 399.734 149.919Z" fill="#485C90"/>
<path d="M362.194 154.516H359.129V157.581H362.194V154.516Z" fill="#485C90"/>
<path d="M368.323 154.516H365.258V157.581H368.323V154.516Z" fill="#485C90"/>
<path d="M362.194 160.645H359.129V163.71H362.194V160.645Z" fill="#485C90"/>
<path d="M414.29 142.258H408.161V160.645H414.29C419.361 160.645 423.484 156.522 423.484 151.452C423.484 146.381 419.361 142.258 414.29 142.258ZM414.29 157.581H411.226V145.323H414.29C417.67 145.323 420.419 148.071 420.419 151.452C420.419 154.832 417.67 157.581 414.29 157.581Z" fill="#485C90"/>
<path d="M426.548 160.645H429.613V152.984H438.806V149.919H429.613V145.323H441.871V142.258H426.548V160.645Z" fill="#485C90"/>
<path d="M383.645 177.359V178.752C383.645 180.241 384.082 181.685 384.908 182.923L389.465 189.758L380.271 203.548H369.714C365.568 203.548 362.194 206.922 362.194 211.069V211.351C362.194 215.497 365.568 218.871 369.714 218.871C372.234 218.871 374.574 217.619 375.972 215.521L381.912 206.613H400.702L406.641 215.521C408.039 217.619 410.379 218.871 412.899 218.871C417.045 218.871 420.419 215.497 420.419 211.351V211.069C420.419 206.922 417.045 203.548 412.899 203.548H402.342L393.148 189.758L397.705 182.923C398.531 181.683 398.968 180.241 398.968 178.752V177.359C398.968 173.213 395.594 169.839 391.447 169.839H391.166C387.019 169.839 383.645 173.213 383.645 177.359ZM373.422 213.822C372.595 215.065 371.208 215.806 369.714 215.806C367.258 215.806 365.258 213.807 365.258 211.351V211.069C365.258 208.613 367.258 206.613 369.714 206.613H378.229L373.422 213.822ZM412.899 206.613C415.355 206.613 417.355 208.613 417.355 211.069V211.351C417.355 213.807 415.355 215.806 412.899 215.806C411.405 215.806 410.02 215.065 409.191 213.822L404.384 206.613H412.899ZM398.658 203.548H383.953L391.307 192.521L398.658 203.548ZM386.71 177.359C386.71 174.903 388.709 172.903 391.166 172.903H391.447C393.904 172.903 395.903 174.903 395.903 177.359V178.752C395.903 179.634 395.644 180.489 395.156 181.223L391.307 186.995L387.457 181.222C386.969 180.489 386.71 179.634 386.71 178.752V177.359Z" fill="#485C90"/>
<path d="M392.839 209.677H389.774V212.742H392.839V209.677Z" fill="#485C90"/>
<path d="M398.968 209.677H395.903V212.742H398.968V209.677Z" fill="#485C90"/>
<path d="M386.71 209.677H383.645V212.742H386.71V209.677Z" fill="#485C90"/>
</svg>
