<svg width="224" height="224" viewBox="0 0 224 224" fill="none" xmlns="http://www.w3.org/2000/svg">
<path d="M106.663 9.01254C95.3314 11.725 84.8751 23.9313 77.1751 43.5313C75.4689 47.8625 75.1626 48.3438 74.2876 48.2125C73.7189 48.1688 71.4001 47.775 69.1251 47.425C62.5189 46.375 50.5314 46.1563 45.1064 46.9875C28.5251 49.525 19.2501 58.5375 19.2501 72.1875C19.2501 73.9813 19.5126 76.65 19.8189 78.1375L20.3876 80.8063L18.7251 82.6438C13.8689 88.1563 14.3064 96.8188 19.6876 101.675C22.8814 104.519 27.3439 105.875 30.9751 105.088L32.7251 104.694L35.6564 108.325L38.5439 112L35.6564 115.631C24.8939 128.975 19.2939 141.4 19.2501 151.813C19.2501 162.925 25.4626 171.106 36.9251 175.044C42.7876 177.1 48.4314 177.756 57.3126 177.45C61.5126 177.319 66.8501 176.925 69.1251 176.575C71.4001 176.225 73.7189 175.831 74.2876 175.788C75.1626 175.656 75.4689 176.138 77.1751 180.469C87.2376 206.063 102.025 218.838 117.031 215.031C120.794 214.069 125.519 211.575 128.363 209.038L130.813 206.85L133.044 207.375C139.344 208.906 145.731 205.888 148.794 199.938C150.369 196.963 150.281 191.844 148.663 188.519C148.006 187.206 147 185.675 146.388 185.106L145.381 184.144L147 179.988C147.875 177.713 148.706 175.788 148.794 175.7C148.881 175.613 151.156 175.919 153.781 176.356C160.825 177.581 173.119 177.888 178.894 177.013C187.381 175.7 193.55 172.944 198.144 168.394C209.65 156.975 206.019 137.55 188.344 115.588L185.413 112L188.169 108.588L190.881 105.219H194.25C197.138 105.175 198.013 105 200.506 103.775C203.788 102.156 205.275 100.581 206.894 97.125C208.994 92.5313 208.075 86.3625 204.75 82.9063L203.438 81.55L204.094 78.5313C204.444 76.825 204.75 73.9813 204.75 72.1875C204.75 58.5813 195.475 49.525 178.894 46.9875C173.119 46.1125 160.825 46.4188 153.781 47.6438C151.156 48.0813 148.838 48.3438 148.706 48.1688C148.575 48.0375 147.7 45.9375 146.781 43.5313C137.2 18.2875 122.063 5.25004 106.663 9.01254ZM116.9 15.3125C125.738 18.025 134.181 28.4813 140.744 44.8C141.794 47.425 142.581 49.6125 142.494 49.7C142.406 49.7875 139.606 50.6625 136.238 51.5813C129.719 53.4188 121.1 56.4375 115.456 58.8438L112 60.3313L108.413 58.8C102.681 56.35 94.5439 53.5063 87.8501 51.625C84.4376 50.6625 81.5939 49.7875 81.5064 49.7C81.4189 49.6125 82.2064 47.425 83.2564 44.8C89.7751 28.6563 97.9126 18.4188 106.75 15.4438C110.294 14.2188 113.269 14.175 116.9 15.3125ZM68.8189 53.5938C72.8439 54.25 73.5001 54.4688 73.2814 55.0813C71.9689 58.45 68.3814 76.2563 67.5939 83.4313L67.2876 86.1L62.8689 89.5125C57.3564 93.7125 52.1939 98.2188 46.9876 103.381C44.7564 105.525 42.7876 107.188 42.5689 107.056C42.3501 106.925 41.2564 105.656 40.1626 104.256L38.1501 101.675L39.0689 100.625C42.2189 96.775 43.0939 90.7375 41.1689 86.275C39.8564 83.3875 36.2251 79.975 33.4251 79.0125C32.2876 78.6188 30.1001 78.3125 28.6126 78.3125H25.8564L25.5501 75.8625C25.0689 71.9688 25.5939 67.4625 26.8189 64.6625C29.4439 58.7563 36.5751 54.425 46.1564 52.9375C50.1814 52.325 63.3939 52.7188 68.8189 53.5938ZM181.781 53.7688C189.656 55.8688 194.906 59.5875 197.181 64.6625C198.406 67.4188 199.019 73.5875 198.319 76.6938L197.969 78.3563L194.25 78.4438C191.406 78.5313 190.094 78.7938 188.694 79.5375C185.938 80.9813 184.1 82.775 182.613 85.4C181.475 87.5 181.344 88.1125 181.344 91.6563C181.344 95.9 182.131 98.175 184.538 100.713L185.631 101.894L183.75 104.344C182.7 105.7 181.694 106.881 181.475 107.013C181.256 107.144 178.938 105.219 176.313 102.681C171.588 98.0875 163.188 90.9125 158.944 87.8063C156.756 86.2313 156.713 86.1 156.406 83.4313C155.619 76.4313 152.031 58.3625 150.719 55.0813C150.5 54.5125 151.025 54.2938 153.65 53.8563C160.431 52.7188 162.794 52.5438 170.406 52.7188C176.706 52.8063 178.981 53.025 181.781 53.7688ZM94.9814 60.2875C97.7376 61.25 100.931 62.4313 102.113 62.8688L104.213 63.7438L97.2564 67.4625C89.6001 71.575 82.5564 75.7313 77.4376 79.1438C75.6439 80.325 74.1564 81.2875 74.1126 81.2438C73.6751 80.7188 78.5751 57.3563 79.4501 55.9563C79.6689 55.6063 88.2876 58.0125 94.9814 60.2875ZM146.038 61.4688C148.05 69.3875 150.194 80.9375 149.713 80.9375C149.625 80.9375 146.694 79.1438 143.238 77C137.419 73.325 127.838 67.9 122.106 64.9688L119.7 63.7875L121.1 63.175C127.225 60.6375 143.894 55.4313 144.463 55.9563C144.638 56.0875 145.338 58.5813 146.038 61.4688ZM120.225 71.05C129.631 75.8188 136.413 79.7563 144.9 85.4L150.85 89.3813L151.156 92.2688C151.331 93.8438 151.594 98.9625 151.769 103.556C152.031 112.175 151.725 126.525 151.156 131.731L150.85 134.619L144.9 138.6C136.369 144.244 129.631 148.181 120.225 152.95L112 157.106L103.819 152.95C94.3689 148.181 87.6314 144.244 79.1001 138.6L73.1501 134.619L72.8439 131.731C72.6689 130.156 72.4064 125.038 72.2314 120.4C71.9689 111.781 72.2751 97.3875 72.8439 92.2688L73.1501 89.3813L79.1001 85.4438C88.0689 79.45 92.4876 76.8688 102.594 71.6625C107.669 69.0813 111.825 66.9375 111.913 66.9375C112 66.9375 115.719 68.775 120.225 71.05ZM32.4626 85.4C36.6626 87.7625 37.4064 93.4938 33.9501 96.95C30.9314 99.9688 26.2939 99.8375 23.4064 96.6438C21.6564 94.675 21.2626 93.45 21.5689 90.6938C22.1376 85.5313 27.7814 82.775 32.4626 85.4ZM198.144 85.3563C202.431 87.7625 203.219 93.4938 199.763 96.95C196.219 100.494 190.269 99.4438 187.863 94.85C186.638 92.5313 187.25 88.7688 189.131 86.6688C191.275 84.35 195.3 83.7375 198.144 85.3563ZM66.3251 97.0813C65.9314 100.494 65.9314 123.55 66.3251 127.006L66.6314 129.675L64.4876 127.969C60.0689 124.425 53.5064 118.519 50.3126 115.281L47.0314 111.956L52.0626 107.056C56.3501 102.856 65.9314 94.5 66.4564 94.5C66.5439 94.5 66.5001 95.6813 66.3251 97.0813ZM166.031 101.544C168.438 103.644 171.894 106.838 173.688 108.675L176.925 112L173.688 115.325C170.494 118.519 163.931 124.425 159.513 127.969L157.369 129.719L157.675 126.788C158.069 122.938 158.069 100.363 157.675 96.9063L157.369 94.2813L159.513 96.0313C160.694 96.95 163.625 99.4438 166.031 101.544ZM47.8626 121.494C52.7626 126.219 60.9001 133.131 65.0564 136.194C67.2439 137.769 67.2876 137.9 67.5939 140.569C68.3814 147.744 71.9689 165.55 73.2814 168.919C73.5001 169.531 72.8001 169.75 68.6001 170.45C61.2064 171.675 47.0751 171.588 42.2189 170.275C34.3001 168.088 29.1814 164.456 26.7751 159.338C25.6814 157.063 25.5939 156.406 25.6376 151.594C25.6376 146.825 25.7689 145.95 27.0814 142.188C28.5689 137.769 31.8064 131.381 34.5626 127.356C36.7939 124.031 42.3939 116.813 42.7001 116.813C42.8751 116.813 45.1501 118.913 47.8626 121.494ZM185.981 122.631C201.863 143.588 202.825 161 188.475 167.781C182.394 170.669 179.419 171.194 169.313 171.238C162.444 171.281 159.163 171.106 155.4 170.45C151.2 169.75 150.5 169.531 150.719 168.919C152.031 165.594 155.663 147.656 156.45 140.525C156.713 137.856 156.8 137.769 158.988 136.15C163.275 133.044 171.675 125.869 176.269 121.363C178.806 118.869 181.125 116.9 181.344 116.988C181.606 117.031 183.663 119.569 185.981 122.631ZM82.4689 148.006C86.1001 150.281 92.4439 153.956 96.6439 156.188L104.213 160.256L102.113 161.131C95.0251 163.931 79.7564 168.613 79.4501 168.044C78.7939 166.994 75.3376 151.331 74.5939 146.125C74.4189 145.031 74.2001 143.763 74.0689 143.281C73.8501 142.494 73.8501 142.45 74.8564 143.194C75.4251 143.588 78.8814 145.775 82.4689 148.006ZM149.319 146.65C148.313 153.213 145.25 166.819 144.55 168.044C144.244 168.613 128.8 163.888 121.888 161.131L119.788 160.256L127.225 156.275C134.75 152.25 139.431 149.494 145.906 145.338C147.831 144.069 149.538 143.063 149.669 143.063C149.8 143.063 149.669 144.681 149.319 146.65ZM114.975 164.938C120.838 167.431 128.844 170.231 135.581 172.2C139.3 173.294 142.45 174.213 142.494 174.3C142.538 174.344 142.056 175.875 141.356 177.625L140.131 180.906H136.675C133.788 180.906 132.825 181.125 130.725 182.131C127.881 183.531 125.431 186.069 124.075 188.956C123.375 190.488 123.156 191.8 123.2 194.469C123.2 197.488 123.375 198.319 124.469 200.375C125.213 201.688 125.825 202.913 125.913 203.088C126 203.263 124.644 204.4 122.894 205.581C114.056 211.794 105.438 210.569 96.8626 201.906C93.8001 198.8 89.5126 192.544 86.9751 187.513C84.9626 183.531 81.2876 174.519 81.5501 174.256C81.6376 174.169 83.5626 173.6 85.7939 172.988C92.7939 171.15 108.5 165.506 111.825 163.669C111.869 163.625 113.269 164.194 114.975 164.938ZM138.688 187.25C140.481 187.731 142.8 189.919 143.456 191.756C144.681 194.95 143.238 198.844 140.263 200.594C132.606 205.056 125.125 194.95 131.556 188.869C133.569 186.988 135.888 186.463 138.688 187.25Z" fill="#485C90"/>
<path d="M107.406 88.375C98.7438 90.3 92.0063 96.25 89.1625 104.475C87.7625 108.631 87.7625 115.369 89.1625 119.525C91.6125 126.7 97.0375 132.125 104.388 134.838C108.106 136.194 115.894 136.194 119.613 134.838C126.963 132.125 132.388 126.7 134.838 119.525C136.238 115.369 136.238 108.631 134.838 104.475C132.344 97.3 126.831 91.7438 119.613 89.2063C116.681 88.2 110.206 87.7625 107.406 88.375ZM116.55 94.7188C119.919 95.5938 122.369 97.0813 124.994 99.8813C134.794 110.25 128.975 127.225 114.756 129.631C109.288 130.594 103.994 128.888 99.7063 124.819C95.3313 120.663 93.4063 114.931 94.3688 109.156C95.025 105.394 96.3813 102.638 99.0063 99.8813C103.731 94.85 109.988 93.0125 116.55 94.7188Z" fill="#485C90"/>
<path d="M120.4 109.944C119.875 110.513 119.438 111.519 119.438 112.131C119.438 114.056 118.388 116.025 116.2 118.038C113.881 120.225 113.619 121.538 115.281 123.156C116.681 124.6 117.6 124.513 119.788 122.938C124.425 119.569 127.094 112.263 124.556 109.9C123.244 108.675 121.581 108.675 120.4 109.944Z" fill="#485C90"/>
</svg>
