<svg width="197" height="197" viewBox="0 0 197 197" fill="none" xmlns="http://www.w3.org/2000/svg">
<g clip-path="url(#clip0_24_26)">
<path d="M40.0157 28.1263C34.2057 28.4341 26.9336 29.55 21.7778 30.8582C17.3914 31.974 16.8143 32.6666 16.6219 36.7836L16.468 39.6308H9.46527C2.00081 39.6308 1.46214 39.7847 0.423276 41.824C-0.230826 43.0937 -0.153873 165.68 0.500229 166.988C0.769565 167.527 1.61605 168.258 2.38558 168.643L3.80921 169.335L8.73421 167.219C34.8213 156.099 63.6018 153.675 93.1903 160.062L98.4615 161.217L103.579 160.101C109.889 158.716 117.661 157.523 123.51 156.984C132.359 156.215 148.52 156.677 156.176 157.985C168.989 160.101 178.493 162.871 188.574 167.296C193.499 169.489 194.499 169.528 196.038 167.681L197 166.527V104.618C197 37.2453 197.115 41.0929 194.884 40.0925C194.23 39.7847 191.498 39.6308 186.996 39.6308H180.07V36.7066C180.07 33.4361 179.724 32.5511 178.223 31.7816C175.453 30.3965 164.988 28.6265 156.176 28.1263C133.783 26.7797 115.122 32.2818 101.386 44.2095L98.3461 46.8644L95.5758 44.2865C87.4188 36.6681 75.5295 31.2429 62.1397 29.0883C58.5229 28.5111 48.2881 27.6646 46.1719 27.78C45.6332 27.78 42.8629 27.934 40.0157 28.1263ZM61.2932 36.899C74.0674 39.323 83.6096 43.9017 91.3819 51.2508L94.6524 54.3289V101.809C94.6524 127.935 94.5754 149.289 94.46 149.289C94.3446 149.289 93.5365 148.827 92.6131 148.25C86.303 144.249 75.4526 140.593 64.9869 138.939C53.2901 137.053 42.7475 136.9 27.2414 138.362L24.2403 138.631V88.4191V38.2072L27.4338 37.5916C30.2426 37.0529 33.9364 36.5142 38.0918 36.014C38.8229 35.9371 43.4401 35.8986 48.2881 35.9756C55.2524 36.0525 58.0227 36.2834 61.2932 36.899ZM164.526 36.7066C166.873 37.0529 169.643 37.5531 170.682 37.8224L172.567 38.2842L172.683 88.4576L172.76 138.631L169.797 138.362C161.024 137.554 157.754 137.361 151.752 137.361C134.091 137.361 118.546 140.709 106.311 147.173L102.348 149.251V101.809V54.3674L104.964 51.7894C113.929 42.9783 124.433 38.4765 141.786 36.014C144.518 35.6293 160.486 36.1295 164.526 36.7066ZM16.9297 95.922V144.518L17.7377 145.403C18.969 146.711 20.0463 146.98 22.7782 146.557C28.5496 145.711 38.4766 145.057 45.5948 145.057C56.1758 145.057 65.0639 146.211 73.4903 148.673L76.7608 149.635L73.1055 149.366C67.334 148.943 50.6352 149.097 45.9795 149.597C34.0133 150.982 21.1237 154.099 10.3118 158.254L7.69535 159.254V103.31V47.3261H12.3125H16.9297V95.922ZM189.305 103.31V159.254L186.727 158.254C174.183 153.521 160.255 150.366 146.827 149.251C141.555 148.827 127.011 148.981 121.971 149.481C120.509 149.635 120.739 149.52 123.317 148.712C127.627 147.404 135.207 145.942 140.632 145.403C146.403 144.826 163.448 145.172 169.874 145.98C175.376 146.711 177.531 146.75 178.608 146.172C180.494 145.172 180.455 146.557 180.455 95.2295V47.3261H184.88H189.305V103.31Z" fill="#485C90"/>
</g>
<defs>
<clipPath id="clip0_24_26">
<rect width="197" height="197" fill="white"/>
</clipPath>
</defs>
</svg>
