<svg width="165" height="165" viewBox="0 0 165 165" fill="none" xmlns="http://www.w3.org/2000/svg">
<path d="M77.5049 0.547853C66.4512 2.90039 58.3301 12.9229 58.3301 24.1699C58.3301 35.4814 66.5479 45.5039 77.7305 47.8242C85.6582 49.4678 93.8115 46.9863 99.5479 41.1533C103.995 36.6416 106.154 31.8398 106.573 25.459C107.443 11.7627 96.0996 -0.128904 82.2744 0.0322285C80.8887 0.0322285 78.7617 0.257814 77.5049 0.547853ZM87.1406 5.47852C90.7822 6.41309 93.2637 7.83106 96.0352 10.6348C98.8389 13.4063 100.257 15.8877 101.191 19.5293C102.352 24.0732 101.739 29.0361 99.5156 33.29C98.0977 35.9326 94.1982 39.832 91.6201 41.1855C87.334 43.4414 82.4033 44.0215 77.8594 42.8613C74.2178 41.9268 71.7363 40.5088 68.9648 37.7051C66.1611 34.9336 64.7432 32.4522 63.8086 28.8105C62.6484 24.2666 63.2285 19.3359 65.4844 15.0498C66.8379 12.4395 70.7695 8.50781 73.3799 7.1543C77.666 4.89844 82.5967 4.31836 87.1406 5.47852Z" fill="#485C90"/>
<path d="M8.8623 12.0205C5.31738 13.2129 2.57812 15.6299 1.06348 18.8525L0.161133 20.7861V59.458V98.1299L0.93457 100.192C1.35352 101.385 6.54199 110.312 12.8584 120.753L24.041 139.219L23.042 144.794L22.043 150.337L17.6279 150.498C14.0508 150.627 13.1162 150.756 12.6973 151.207C12.3105 151.562 11.8271 153.431 11.2471 156.524C10.1191 162.486 10.0869 163.389 11.0537 164.291L11.7949 165H45.1494C77.9561 165 78.5361 165 79.1807 164.355C79.5674 164.001 79.9863 163.131 80.083 162.325C80.2119 161.584 80.2441 151.884 80.1797 140.83C80.0186 118.304 80.1152 119.206 77.6338 114.082C76.3125 111.343 76.2158 111.246 57.3955 92.3936C37.0928 72.0264 37.3184 72.2197 33.2256 71.5107C30.4219 70.9951 28.1338 71.5107 24.4277 73.4121C24.2666 73.4766 24.1699 63.0029 24.1699 50.1445C24.1699 29.2295 24.2344 26.748 24.6533 26.748C25.5234 26.748 28.1982 29.7129 28.6172 31.1309C28.9072 32.0977 29.0039 36.835 29.0039 48.6299V64.8076L29.8096 65.5811C30.8086 66.6123 32.0332 66.6123 33.0645 65.5811L33.8701 64.7754L33.7734 47.6309L33.6768 30.4541L32.7744 28.5205C32.291 27.457 31.1953 25.8779 30.3574 25.0078C28.9395 23.5254 25.5879 21.5918 24.46 21.5918C24.1377 21.5918 23.8154 21.0762 23.5576 20.2061C22.623 17.0156 20.0449 14.1152 16.8867 12.665C14.7275 11.6982 10.8281 11.376 8.8623 12.0205ZM14.2119 16.79C15.8232 17.3057 17.5957 18.7559 18.4658 20.3994L19.1748 21.7529L19.3359 53.9795L19.4971 86.2061L20.5605 88.4619C21.5596 90.5889 22.7197 91.8135 39.4131 108.507C55.1396 124.266 57.3311 126.328 58.2012 126.328C59.5869 126.328 60.5859 125.297 60.5859 123.814C60.5859 122.687 59.8447 121.913 42.7324 104.736C23.8799 85.8516 24.1699 86.2061 24.1699 83.3379C24.1699 80.2764 26.6514 77.0859 29.584 76.377C31.4854 75.9258 33.0645 76.1191 34.8047 77.0215C36.4482 77.8916 71.8975 113.566 72.9932 115.468C75.0557 119.077 75.0879 119.432 75.0879 135.706V150.498H51.0791C32.0977 150.498 27.0703 150.401 27.0703 150.079C27.0703 149.886 27.5215 147.114 28.0693 143.988L29.1006 138.252L22.7197 127.714C19.207 121.881 13.9219 113.115 10.9248 108.217C7.05762 101.771 5.44629 98.8389 5.18848 97.6465C4.70508 95.3584 4.70508 23.2354 5.18848 21.4629C5.38184 20.7861 6.15527 19.5615 6.86426 18.7881C8.89453 16.6611 11.4404 15.9844 14.2119 16.79ZM75.0879 157.749V160.166H45.2461H15.4043L15.5654 159.425C15.6621 159.038 15.8555 158.136 15.9521 157.427C16.0811 156.718 16.21 155.944 16.2744 155.719C16.4033 155.429 22.5586 155.332 45.7617 155.332H75.0879V157.749Z" fill="#485C90"/>
<path d="M149.821 12.0205C146.373 13.0195 143.022 16.0166 141.829 19.207C141.442 20.1738 141.152 21.1084 141.152 21.2695C141.152 21.4629 140.895 21.5918 140.605 21.5918C139.412 21.5918 136.093 23.4931 134.643 25.0078C133.805 25.8779 132.709 27.457 132.226 28.5205L131.323 30.4541L131.227 47.6308L131.13 64.7754L131.936 65.581C132.967 66.6123 134.191 66.6123 135.19 65.581L135.996 64.8076V48.6299C135.996 36.8349 136.093 32.0976 136.383 31.1308C136.802 29.7129 139.477 26.748 140.347 26.748C140.766 26.748 140.83 29.2295 140.83 50.1445C140.83 63.0029 140.733 73.4766 140.605 73.4121C136.866 71.5107 134.578 70.9951 131.774 71.5107C127.682 72.2197 127.907 72.0264 107.605 92.3935C89.461 110.602 88.6876 111.439 87.3985 113.953C84.9493 118.755 84.9815 118.239 84.8526 140.83C84.7559 151.884 84.7881 161.584 84.9171 162.325C85.0137 163.131 85.4327 164.001 85.8194 164.355C86.4639 165 87.044 165 119.883 165H153.302L153.979 164.259C154.913 163.292 154.881 162.39 153.753 156.524C153.173 153.431 152.69 151.562 152.303 151.207C151.884 150.756 150.949 150.627 147.372 150.498L142.957 150.337L141.958 144.794L140.959 139.219L152.142 120.753C158.458 110.312 163.647 101.385 164.065 100.192L164.839 98.1299V59.458V20.7861L163.937 18.8203C162.776 16.3389 160.295 13.8252 157.814 12.7295C155.59 11.6982 152.045 11.376 149.821 12.0205ZM155.171 16.79C155.977 17.0156 157.04 17.7246 157.942 18.6592C158.877 19.5615 159.586 20.625 159.812 21.4306C160.327 23.3642 160.295 95.3584 159.779 97.7109C159.489 98.9355 157.878 101.9 154.011 108.281C151.078 113.147 145.793 121.881 142.28 127.714L135.899 138.252L136.931 143.988C137.479 147.114 137.93 149.886 137.93 150.079C137.93 150.401 132.902 150.498 113.921 150.498H89.9122V135.706C89.9122 119.432 89.9444 119.077 92.0069 115.468C93.1026 113.566 128.552 77.8916 130.195 77.0215C131.936 76.1191 133.515 75.9258 135.416 76.3769C138.349 77.0859 140.83 80.2764 140.83 83.3379C140.83 86.206 141.12 85.8516 122.268 104.736C105.155 121.913 104.414 122.687 104.414 123.814C104.414 125.297 105.413 126.328 106.799 126.328C107.669 126.328 109.86 124.266 125.587 108.507C142.28 91.8135 143.44 90.5889 144.44 88.4619L145.503 86.206L145.664 53.9795L145.825 21.7529L146.534 20.3994C148.242 17.2412 151.658 15.8232 155.171 16.79ZM149.08 157.588C149.306 158.748 149.499 159.779 149.499 159.908C149.531 160.069 136.125 160.166 119.722 160.166H89.9122V157.749V155.332L119.303 155.396L148.693 155.493L149.08 157.588Z" fill="#485C90"/>
<path d="M54.3984 53.6894C50.2412 54.6884 46.5029 57.3632 44.0859 61.0371C42.7002 63.164 41.5723 66.4511 41.5723 68.3203C41.5723 69.4482 41.7979 69.7705 44.2471 72.0263C53.5283 80.5986 65.6455 85.7548 78.5361 86.6894C94.2949 87.7851 110.602 82.0166 121.43 71.4462C123.686 69.2226 123.782 68.8359 122.944 65.581C121.784 61.1338 118.497 57.1699 114.275 55.1074C112.857 54.3984 110.892 53.6572 109.925 53.4961C108.861 53.3027 98.1621 53.1738 82.21 53.206C61.2305 53.2382 55.8809 53.3027 54.3984 53.6894ZM110.312 58.6523C113.889 59.7802 116.563 62.3261 117.949 66L118.562 67.6435L116.725 69.2226C111.923 73.3798 105.22 77.247 99.3545 79.2451C87.8174 83.1767 74.6045 82.8545 63.1641 78.3105C58.1045 76.3125 51.7881 72.413 48.1143 69.0293C46.5996 67.6435 46.5029 67.4502 46.7607 66.5478C47.7275 63.1962 51.1436 59.748 54.5273 58.6845C56.4932 58.0722 57.5566 58.04 82.3711 58.04C107.411 58.0078 108.281 58.04 110.312 58.6523Z" fill="#485C90"/>
</svg>
