<svg width="94" height="157" viewBox="0 0 94 157" fill="none" xmlns="http://www.w3.org/2000/svg">
<path fill-rule="evenodd" clip-rule="evenodd" d="M50.837 45.687C51.1633 45.3429 51.1988 44.2283 50.8153 43.981C51.4383 44.2756 51.3797 45.3755 50.837 45.687ZM43.9644 45.687C44.29 45.3429 44.327 44.2311 43.942 43.9818C44.5658 44.277 44.5071 45.3755 43.9644 45.687ZM46.8421 48.6819C46.3769 49.1467 46.0838 49.1 45.7604 49.223C45.3125 49.5571 46.1953 49.9407 46.8002 49.976C47.4029 49.9727 48.3971 49.5705 47.9238 49.2188C47.6026 49.1001 47.3088 49.1461 46.8421 48.6819ZM46.8845 38.1684C46.8845 38.208 46.8845 38.2468 46.8845 38.2864C46.8692 38.2754 46.8526 38.263 46.8396 38.2454C46.828 38.263 46.8178 38.2757 46.8019 38.2864C46.8019 38.2497 46.8008 38.2137 46.8008 38.1776C46.7507 38.078 46.7138 37.9529 46.6452 37.9205C46.5959 37.9947 46.5808 38.3613 46.5808 38.3359C46.4303 38.1881 46.4201 38.0455 46.295 37.8964C46.2414 38.1302 46.2682 38.148 46.2602 38.4086C46.067 38.1656 45.9187 38.0942 45.8442 38.0186C45.8475 38.1444 45.8658 38.2779 45.8781 38.5519C45.7869 38.3691 45.4671 38.1402 45.4671 38.0942C45.491 38.1931 45.5359 38.5428 45.5446 38.7306C45.4353 38.5802 45.2161 38.4389 45.1408 38.34C45.1498 38.5406 45.2254 38.6176 45.2833 38.9801C45.2833 39.004 44.9817 38.7046 44.8253 38.6276C45.0475 39.8241 45.3036 39.4943 44.5359 38.9242C44.7334 39.4307 45.4766 41.917 45.3166 42.8353C45.2009 42.1452 44.5634 39.5535 44.0612 39.3784C44.1662 39.8941 44.5193 41.037 44.5374 41.5936C44.1835 40.6018 44.0562 39.8128 43.7609 39.603C43.6105 40.0473 43.9238 40.7544 44.0989 41.4699C43.829 40.9168 43.5598 39.9746 43.2588 39.9746C43.1842 40.3694 43.5656 41.0624 43.7154 41.4077C43.7154 41.4077 43.1589 40.4443 42.9324 40.344C42.8072 40.6145 43.2356 41.0857 43.3102 41.4537C43.0591 41.2842 42.8072 40.9621 42.6061 40.6916C42.6061 41.1358 42.782 41.0857 42.8326 41.5279C42.6061 41.2595 41.9535 40.4945 41.7284 40.2691C42.4867 40.5721 43.1509 39.235 43.1343 38.6374C43.0584 36.3608 37.4896 32.3063 37.7393 39.9477C37.8153 41.9029 38.1191 42.5203 38.7697 43.433C39.0946 42.8424 40.1727 41.9029 40.5996 41.6302C40.5996 41.0857 40.3246 41.0115 40.2487 40.7395C40.4238 40.9366 41.0019 41.508 41.2009 41.508C40.7002 41.0857 39.5192 38.8599 39.9708 38.9595C40.2978 40.4175 41.1771 40.7897 41.9802 41.78C41.9802 41.9503 41.5272 41.508 41.2009 41.508C41.177 41.5809 41.4773 41.9242 41.5533 42.0259C41.397 41.9489 40.9751 41.6296 40.8275 41.6797C40.7392 41.7094 40.7501 41.8719 40.9759 42.3C40.8 42.2744 40.6243 42.2484 40.4484 42.2484C40.5243 42.3953 40.5736 42.5698 40.6243 42.7428C40.2154 42.5571 40.0338 42.4588 40.0034 42.5796C39.9853 42.6524 40.0229 42.8042 40.0988 43.0628C39.9382 42.971 39.8442 42.9569 39.7964 43.0063C39.7176 43.0875 39.7682 43.3397 39.8623 43.6816C39.7154 43.4379 39.6178 43.4365 39.5576 43.5784C39.3905 43.9712 39.507 45.4665 39.6604 46.0084C39.7603 46.3672 40.112 46.9965 40.363 46.7253C40.4274 47.0841 40.4781 47.2515 40.554 47.3095C40.63 47.3688 40.7313 47.3182 40.8942 47.2438C41.0258 47.2826 41.1148 47.8463 41.4057 47.8753C41.5034 47.8851 41.6228 47.835 41.7726 47.6867C42.0584 48.1091 42.2052 48.2673 42.3354 48.2757C42.5027 48.2845 42.6416 48.0505 43.0077 47.811C43.0374 48.0589 43.1169 48.1818 43.2385 48.2165C43.5084 48.2906 43.9846 47.9332 44.5923 47.5164C43.4411 48.5166 43.2928 49.1205 43.6408 49.3502C44.0873 49.6425 45.3514 49.3156 46.3485 48.4086C46.7652 48.03 46.3738 47.9932 46.1719 47.5977C45.9245 47.1074 46.3825 47.0128 46.7906 47.0014C46.7906 46.9982 46.7906 46.996 46.7906 46.9949C46.821 46.9949 46.8499 46.9971 46.8803 46.9981C46.8848 46.9981 46.8915 46.9974 46.8969 46.9974C46.8969 46.9974 46.8969 46.9985 46.8969 46.9996C47.3043 47.0129 47.7623 47.1069 47.5142 47.5986C47.3131 47.9927 46.9223 48.0309 47.3391 48.4094C48.3615 49.3412 49.6697 49.6611 50.0821 49.3234C50.3824 49.0763 50.2058 48.4808 49.0945 47.5152C49.6472 47.8946 50.0916 48.2258 50.3687 48.2264C50.5351 48.2264 50.643 48.1093 50.6784 47.8119C51.0865 48.0753 51.2131 48.3374 51.4107 48.261C51.5279 48.2174 51.6718 48.0492 51.915 47.6876C52.0655 47.8359 52.1855 47.886 52.2818 47.8761C52.5728 47.8465 52.6632 47.2821 52.7934 47.2439C52.9562 47.3181 53.0583 47.3683 53.1342 47.3104C53.2103 47.251 53.2623 47.085 53.3246 46.7262C53.5756 46.9953 53.9258 46.3652 54.0271 46.0092C54.1892 45.4328 54.3115 43.7764 54.0944 43.5164C54.0336 43.4437 53.9461 43.4797 53.8253 43.6803C53.936 43.2714 53.988 42.9909 53.826 42.9803C53.7725 42.9759 53.695 43.003 53.5879 43.0636C53.6385 42.8913 53.6718 42.7663 53.6827 42.6801C53.716 42.423 53.5525 42.5197 53.0626 42.7437C53.1125 42.5706 53.1625 42.3962 53.2369 42.2485C53.0626 42.2485 52.8867 42.2726 52.711 42.3008C52.9366 41.8728 52.9469 41.7103 52.8586 41.6806C52.7124 41.6298 52.2905 41.9483 52.1342 42.0267C52.2088 41.925 52.5097 41.5817 52.4858 41.5062C52.1595 41.5062 51.7066 41.9512 51.7066 41.7795C52.5097 40.7906 53.389 40.4184 53.716 38.9583C54.1675 38.8601 52.9866 41.0866 52.4858 41.5062C52.6848 41.5062 53.2623 40.9375 53.4389 40.7404C53.3629 41.011 53.0872 41.0866 53.0872 41.6298C53.5148 41.9017 54.5922 42.8411 54.9186 43.4339C55.5712 42.5212 55.8723 41.9017 55.9461 39.9472C56.1986 32.3072 50.6299 36.3616 50.5539 38.6383C50.5286 39.5036 51.0561 39.825 51.457 40.2199C51.6573 40.4424 51.7066 40.3703 51.9576 40.27C51.7326 40.4954 51.0815 41.2603 50.8557 41.5287C50.9049 41.0866 51.0814 41.1367 51.0814 40.6925C50.8802 40.9629 50.6277 41.2837 50.3767 41.4546C50.4519 41.0837 50.8802 40.6154 50.755 40.3435C50.5286 40.4424 49.9722 41.4086 49.9722 41.4086C50.1227 41.0618 50.504 40.3703 50.4281 39.9734C50.1278 39.9734 49.8579 40.9177 49.5893 41.4708C49.7631 40.7553 50.0771 40.0482 49.9265 39.6025C49.6299 39.8137 49.5033 40.6006 49.1494 41.5909C49.1668 41.0364 49.5214 39.895 49.6256 39.3793C49.1249 39.5544 48.4867 42.1461 48.371 42.8333C48.2095 41.9179 48.9541 39.4309 49.1509 38.9251C48.3832 39.4937 48.6394 39.825 48.8622 38.627C48.7067 38.7019 48.4049 39.0049 48.4049 38.981C48.4628 38.6185 48.5359 38.5415 48.5467 38.3409C48.4723 38.4398 48.2515 38.5775 48.1422 38.7302C48.1512 38.5415 48.1965 38.1939 48.2211 38.093C48.2211 38.1411 47.8998 38.3699 47.8101 38.5521C47.8224 38.2766 47.8413 38.1452 47.8449 38.0181C47.7689 38.093 47.6213 38.1622 47.4273 38.4094C47.4217 38.1488 47.4469 38.129 47.3926 37.8973C47.2674 38.0463 47.2573 38.189 47.1076 38.3367C47.1076 38.3622 47.0923 37.9927 47.0417 37.9171C46.9751 37.9524 46.9324 38.0718 46.8847 38.1693L46.8845 38.1684ZM31.5683 39.644C30.9996 37.9763 30.533 35.3069 31.446 33.6321C31.7652 33.0472 32.5777 32.6022 32.8296 32.6022C33.7659 40.8378 33.8694 40.6286 34.3281 43.291C33.2521 42.9794 31.9302 40.7057 31.5683 39.644ZM43.3954 46.0952C42.527 46.1128 42.0936 45.4983 42.0965 44.8746C42.0999 44.2502 42.54 43.6159 43.4206 43.5968C44.357 43.5763 44.781 44.2735 44.7129 44.9354C44.6522 45.5196 44.2086 46.0796 43.3954 46.0952ZM50.2664 46.0952C49.3996 46.1122 48.9654 45.4969 48.9676 44.8739C48.9709 44.2495 49.4119 43.6159 50.2911 43.5968C51.2541 43.5757 51.676 44.3145 51.5761 44.9933C51.4937 45.5562 51.053 46.0796 50.2664 46.0952ZM42.43 41.6302C41.8541 40.6916 40.4742 39.2816 39.9706 37.599C39.9706 39.3297 42.0777 41.9503 42.43 41.6302ZM51.257 41.6291C51.8316 40.6918 53.2128 39.2819 53.7158 37.5979C53.7158 39.3299 51.6058 41.9505 51.257 41.6291ZM51.3373 125.908C45.6572 96.1003 41.5436 78.6948 41.5436 76.8619C43.7875 75.8863 43.8259 75.909 45.4973 75.4392C47.0096 78.023 48.0885 79.3638 50.3149 81.7443C50.4336 82.9719 50.5132 86.0643 50.6464 87.3069C47.6406 91.7428 47.3808 91.6941 47.0096 93.1668C47.9937 100.031 48.8352 102.241 52.7418 107.937C51.4958 110.463 50.752 118.628 54.8467 120.269C54.9054 121.355 54.9972 122.467 55.1072 123.598C55.5559 123.475 56.0023 123.411 56.4422 123.411H59.3314H59.5407C61.2757 118.385 65.3683 114.252 65.0181 107.211C64.9017 104.929 63.8914 102.777 63.3278 100.556C61.4466 101.517 61.5521 101.57 58.9306 101.819C59.2425 103.906 59.762 104.825 60.0739 106.928C55.8264 111.308 59.0181 116.059 55.4617 119.17C52.3786 121.876 53.249 109.078 54.1333 107.364C49.9944 103.177 48.9778 98.4667 48.506 93.1668C50.0016 90.2051 53.1637 86.4839 54.482 83.9029C50.0313 80.7193 47.9285 77.6437 45.8924 74.699C46.1283 74.699 46.6949 74.4425 46.9453 74.4425C49.0791 77.5512 50.7983 80.5949 54.9292 83.1301C56.0088 81.0082 56.8156 78.5161 57.1752 76.1336C56.5811 76.1336 57.0189 76.1612 56.6484 76.1612C56.299 78.2455 55.5464 80.193 54.5588 82.1136C52.6166 80.2983 50.8844 76.0813 50.1318 74.0399C51.8525 72.7713 52.2765 72.3355 53.5804 70.8479C53.3547 70.4798 53.4661 70.6246 53.1991 70.2326C51.6795 71.5118 51.1311 71.9095 49.6319 73.2982C44.5812 74.5838 44.5812 74.4806 41.2064 75.9682C40.4213 77.6205 41.1095 79.4168 38.1992 79.6633C37.1096 73.5822 42.1146 71.2886 45.8641 69.1081C46.2918 67.1952 46.1862 65.3601 47.0096 63.5751C48.6985 59.9147 50.2831 58.0931 51.5443 55.1122C51.7324 54.6657 51.9148 54.1896 52.0899 53.679C52.1652 53.4557 52.2404 53.224 52.3128 52.9867L52.333 52.99C52.5197 52.4122 52.6753 51.8959 52.807 51.3668C52.9054 50.9712 52.9668 50.5629 53.0298 50.1172C53.087 49.7252 53.1377 49.3021 53.1868 48.8266C51.6268 50.3637 48.2628 51.0581 46.87 51.1004C46.87 51.1004 46.87 51.1037 46.87 51.1048C45.5176 51.0808 42.0777 50.3871 40.5003 48.8267C40.2173 49.0224 40.1508 49.988 40.3686 52.1707C40.4156 52.6518 40.4792 53.1957 40.5553 53.8003C40.6218 54.3195 40.6992 54.8874 40.7875 55.5012C40.8403 55.872 40.899 56.2591 40.959 56.7182C41.0611 57.3074 41.1551 57.8019 41.2419 58.2582C41.3947 59.0747 41.527 59.7783 41.6442 60.4033C42.2708 63.7459 42.5132 64.9679 43.6645 69.9697C43.4438 70.046 43.5501 70.1343 43.1891 70.2749C42.5053 67.4805 42.5805 67.4381 40.7282 59.8362C40.5972 59.3014 40.4569 58.73 40.3064 58.1147C40.2275 57.7948 40.1464 57.4607 40.0531 57.0263C39.9539 56.6286 39.8629 56.3057 39.7717 55.9696C39.5719 55.2328 39.3766 54.436 39.1841 53.6244C39.0053 52.87 38.8274 52.0993 38.65 51.3464C38.4229 50.3808 38.1942 49.4427 37.9656 48.6071C37.132 45.576 35.4323 32.7521 40.9258 35.1982C43.061 36.1539 45.1463 36.8426 46.815 36.8575C46.8337 36.8575 46.8526 36.8575 46.87 36.8575C48.5421 36.8419 50.6275 36.1532 52.7599 35.1982C58.2555 32.7521 56.0992 45.4886 55.7215 48.6036C55.6477 49.228 55.5341 49.9436 55.3944 50.6732C55.2932 51.2058 55.1875 51.749 55.0623 52.2682C54.9683 52.6447 54.8908 53.0176 54.8062 53.3673L54.8221 53.3684L54.681 53.9151L54.1992 55.6209C54.0797 56.0448 53.9509 56.4029 53.846 56.7038C53.6145 57.3551 53.4328 57.7541 53.2939 58.0071C52.6615 59.1612 52.9278 57.2859 53.571 62.6563C55.5406 63.9257 55.8459 64.8892 55.8214 67.2824C72.3335 65.9615 74.9768 78.8547 67.0579 97.8694C68.555 100.7 70.7069 103.445 71.7684 106.484C73.777 112.228 74.6526 117.919 72.7061 123.411H79.4145C87.1243 123.411 89.9694 117.33 89.9701 110.25C89.9735 82.8231 89.9701 56.6692 89.9701 29.2426H35.6885C36.0075 31.5912 36.3889 33.9907 36.776 36.4213C34.4164 43.9172 38.8823 53.9575 42.3136 70.4793L40.4785 71.7013C38.4301 61.5565 38.3888 61.0614 35.3859 45.4578C34.6342 41.553 34.1943 37.6094 33.8325 33.6544C33.6979 32.1832 33.5278 30.7124 33.3628 29.2426H3.38847V110.25C3.38847 117.508 6.84796 123.139 14.5816 123.345H35.8108H37.5466C40.7948 123.345 46.0182 129.091 47.0371 133.507C47.663 130.683 49.3164 127.851 51.3373 125.908ZM0 25.1355H32.9432C32.8499 24.0223 32.7797 22.9083 32.7499 21.7922C32.5163 13.1817 34.2051 1.94418 44.3243 0.195211C52.9668 -1.30015 57.0602 6.10187 57.3062 11.9399C57.4314 14.8939 56.0276 17.5654 52.8062 18.0838C49.134 18.6737 46.857 16.6492 46.2556 14.095C45.3837 10.3909 48.8569 6.22123 53.5804 8.08179C52.1637 2.05083 48.6123 0.967301 44.5841 1.72593C36.1031 3.32084 34.6038 14.7117 34.9489 21.7287C35.0039 22.8483 35.0915 23.9841 35.2044 25.1355H93.9975C93.9975 53.9904 94.0031 82.844 93.9975 111.698C93.9975 119.145 89.2125 126.59 81.1011 126.59H71.2402C70.8415 127.283 70.3929 127.972 69.8886 128.657C68.5529 130.468 63.194 135.008 61.0767 135.505C59.139 131.956 58.6043 129.102 58.8351 126.59H56.9342C56.4488 126.59 55.9552 126.699 55.4625 126.901C56.5964 136.96 58.4169 151.989 46.6551 156.213C39.5922 158.75 32.5742 155.054 31.4366 146.547C30.2775 137.883 41.6052 134.761 43.5067 143.08C44.4163 147.062 39.5299 151.488 35.3859 149.011C35.6117 155.086 41.315 156.537 46.0487 154.847C55.1485 151.6 53.5797 138.263 52.0385 129.652C49.6992 132.412 47.7463 136.515 47.0386 139.706C45.9683 135.061 40.4714 126.59 37.056 126.59H35.2282H12.8956C4.75966 126.374 0 119.333 0 111.698V25.1355Z" fill="black"/>
</svg>
