<svg width="379" height="362" viewBox="0 0 379 362" fill="none" xmlns="http://www.w3.org/2000/svg">
<path fill-rule="evenodd" clip-rule="evenodd" d="M272.554 307.588L283.647 300.086C283.947 299.889 284.164 299.72 284.282 299.58C284.416 299.444 284.447 299.251 284.403 299.002L284.632 298.855L285.184 298.478L287.993 302.367L287.765 302.512L286.959 303.056C285.945 302.24 285.049 301.885 284.266 302C283.48 302.121 282.612 302.505 281.659 303.15L278.138 305.528L282.093 311.018L284.362 309.489C284.96 309.085 285.364 308.665 285.566 308.246C285.768 307.814 285.685 307.346 285.321 306.843L285.286 306.794L285.519 306.646L286.324 306.107L289.138 310.001L288.906 310.16L288.104 310.701C287.815 310.359 287.526 310.145 287.231 310.069C286.934 309.982 286.677 309.954 286.46 309.98C286.26 310.022 286.095 310.086 285.948 310.155C285.799 310.239 285.701 310.292 285.634 310.33L282.931 312.165L287.439 318.414L292.598 314.932C293.5 314.314 294.07 313.53 294.283 312.583C294.497 311.631 294.404 310.761 294.017 309.977L294.238 309.82L295.049 309.271L297.819 313.116L297.594 313.262L283.51 322.771L282.946 321.996C283.3 321.683 283.49 321.394 283.521 321.103C283.546 320.814 283.503 320.552 283.388 320.302C283.343 320.207 283.297 320.106 283.238 320.021C283.191 319.93 283.13 319.846 283.079 319.774L275.314 309.015C275.273 308.954 275.231 308.895 275.186 308.827C275.136 308.766 275.083 308.711 275.031 308.662C274.83 308.45 274.576 308.284 274.283 308.177C273.981 308.069 273.593 308.127 273.119 308.371L272.554 307.588ZM329.251 117.346C328.625 116.639 328.003 115.929 327.385 115.217L326.653 115.416L324.119 116.021L321.623 116.57L319.192 117.084L316.852 117.577L314.636 118.078L312.572 118.602L310.697 119.16L309.042 119.766L307.65 120.419L306.543 121.109L305.728 121.82L305.171 122.552L304.815 123.363L304.643 124.363L304.701 125.659L305.214 127.924C306.572 129.711 308.485 131.866 310.813 134.237L311.141 133.78L312.822 131.61L314.592 129.498L316.452 127.455L318.394 125.491L320.423 123.619L322.53 121.851L324.723 120.197L326.994 118.674L329.251 117.346ZM189.177 320.926C138.923 320.7 51.7837 287.466 36.4396 174.694C24.1225 173.94 21.4865 192.568 0 187.065C2.74817 287.995 99.3487 363.584 189.177 361.912C279.002 363.584 375.602 287.995 378.35 187.065C356.865 192.568 354.231 173.94 341.912 174.694C327.308 287.466 238.69 320.7 189.177 320.926ZM30.0534 191.395L30.9505 196.319L20.7264 208.028L20.7332 208.053L30.1054 206.454C30.1959 206.441 30.3038 206.416 30.4263 206.387C30.5502 206.357 30.6787 206.305 30.8128 206.227C30.9996 206.124 31.1572 205.949 31.287 205.702C31.4181 205.457 31.4781 205.103 31.4679 204.639L32.4378 204.474L32.4859 204.735L33.2971 209.189L32.3285 209.354C32.1958 208.928 32.0192 208.629 31.8003 208.45C31.5846 208.272 31.3774 208.153 31.1834 208.1C31.0287 208.07 30.8842 208.06 30.7443 208.066C30.6072 208.072 30.4948 208.081 30.403 208.097L14.1619 210.869L14.1153 210.607L13.8613 209.226L26.32 194.987L14.3326 197.031C14.2435 197.044 14.1501 197.068 14.0524 197.092C13.9547 197.118 13.8571 197.157 13.7549 197.21C13.5332 197.32 13.3451 197.498 13.1859 197.749C13.0299 197.999 12.9571 198.367 12.9715 198.847L12.0001 199.013L11.9535 198.751L11.141 194.297L12.1109 194.133C12.2671 194.587 12.4668 194.909 12.7047 195.091C12.941 195.276 13.1816 195.382 13.4281 195.413C13.5418 195.428 13.6483 195.43 13.7489 195.424C13.8482 195.415 13.9446 195.402 14.0334 195.39L27.6635 193.065C27.7539 193.047 27.8604 193.028 27.9846 192.995C28.1098 192.965 28.2324 192.921 28.3507 192.867C28.5738 192.774 28.7679 192.62 28.9325 192.404C29.096 192.19 29.1397 191.872 29.0653 191.453L29.0361 191.3L30.0062 191.133L30.0534 191.395ZM36.7867 217.97C37.7656 220.723 37.5628 223.202 36.1784 225.407C34.7927 227.613 32.9416 229.111 30.6179 229.904C30.5998 229.908 30.5903 229.913 30.5815 229.917C30.5724 229.919 30.5581 229.924 30.5421 229.928C27.7313 230.865 25.1683 230.721 22.8505 229.495C20.5354 228.272 18.9644 226.501 18.1388 224.183L18.0251 223.942C17.2169 221.618 17.3352 219.284 18.381 216.938C19.4269 214.594 21.3553 212.955 24.1661 212.019C24.182 212.013 24.1953 212.008 24.2055 212.006C24.2122 212.002 24.2281 211.998 24.2435 211.993C26.5773 211.234 28.9915 211.312 31.486 212.226C33.9818 213.137 35.7162 214.969 36.6978 217.721L36.7867 217.97ZM35.3704 218.305C34.9021 217.042 34.0342 216.126 32.774 215.561C31.5106 214.992 29.1636 215.278 25.7343 216.42C22.7162 217.426 20.7864 218.491 19.9447 219.624C19.1015 220.751 18.9339 222.08 19.4386 223.611C20.022 225.131 20.9994 226.083 22.3792 226.465C23.7591 226.844 25.9575 226.533 28.9741 225.527C32.3873 224.39 34.4164 223.219 35.0581 222.017C35.7001 220.818 35.8051 219.577 35.3704 218.305ZM40.1155 227.682L42.3007 232.215L35.5586 246.084L35.5676 246.108L44.1943 242.218C44.2775 242.18 44.3752 242.132 44.486 242.07C44.5984 242.012 44.7078 241.926 44.8173 241.819C44.9674 241.674 45.0739 241.465 45.1352 241.194C45.1949 240.923 45.1601 240.566 45.0244 240.119L45.9172 239.718L46.0323 239.958L48.0089 244.058L47.1175 244.459C46.8755 244.083 46.6245 243.835 46.3679 243.719C46.1096 243.601 45.8776 243.539 45.675 243.534C45.519 243.545 45.3758 243.573 45.2447 243.611C45.1119 243.65 45.0038 243.688 44.9222 243.726L29.975 250.471L29.8599 250.229L29.2457 248.959L37.4682 232.085L26.4363 237.061C26.3573 237.098 26.2698 237.142 26.1852 237.19C26.0964 237.238 26.0118 237.303 25.9286 237.379C25.7448 237.541 25.6091 237.761 25.5231 238.042C25.437 238.324 25.4661 238.697 25.6091 239.157L24.7163 239.561L24.5996 239.322L22.6232 235.22L23.5174 234.817C23.7917 235.22 24.0673 235.48 24.343 235.597C24.6245 235.715 24.8857 235.756 25.1292 235.724C25.243 235.713 25.3495 235.688 25.4442 235.656C25.5392 235.624 25.631 235.588 25.7097 235.55L38.2545 229.894C38.3361 229.856 38.434 229.805 38.5449 229.746C38.6557 229.686 38.7622 229.615 38.8628 229.53C39.0539 229.386 39.2027 229.188 39.302 228.94C39.4026 228.689 39.3616 228.373 39.1751 227.988L39.1064 227.844L39.9991 227.443L40.1155 227.682ZM57.8854 262.465L53.979 264.546L53.8476 264.316L53.3343 263.411C54.1687 262.685 54.6761 261.94 54.857 261.181C55.038 260.417 55.0569 259.713 54.9169 259.063C54.857 258.812 54.7856 258.579 54.7039 258.36C54.6223 258.143 54.526 257.944 54.4181 257.756C53.9731 257.007 53.4421 256.55 52.8266 256.387C52.2124 256.221 51.6421 256.227 51.12 256.404C51.0558 256.436 50.9945 256.466 50.9316 256.489C50.8733 256.511 50.8106 256.539 50.7464 256.573C50.2534 256.836 49.9267 257.206 49.7707 257.682C49.6147 258.158 49.5344 258.629 49.5298 259.095C49.5457 259.411 49.5665 259.7 49.6042 259.962C49.6379 260.223 49.6714 260.439 49.7049 260.603C49.7162 260.697 49.7275 260.783 49.7386 260.855C49.7499 260.93 49.7618 261.013 49.772 261.108C50.0565 262.852 50.1427 264.462 50.0289 265.945C49.9165 267.423 49.012 268.617 47.3185 269.518C45.8496 270.301 44.28 270.454 42.6127 269.973C40.9455 269.494 39.6122 268.381 38.6188 266.636L38.4614 266.417C38.1858 265.899 37.98 265.421 37.8325 264.982C37.6896 264.548 37.5657 264.147 37.4592 263.78C37.4479 263.725 37.433 263.662 37.4156 263.593C37.3975 263.522 37.3819 263.458 37.3704 263.402C37.3091 263.113 37.2491 262.865 37.1908 262.654C37.134 262.443 37.0653 262.248 36.9852 262.069C36.8873 261.939 36.7838 261.843 36.6657 261.785C36.549 261.726 36.4439 261.691 36.3579 261.679C36.3317 261.671 36.2996 261.668 36.2573 261.671C36.218 261.672 36.1859 261.669 36.1567 261.66L36.0748 261.677L35.9407 261.447L35.5337 260.729L39.5801 258.236L39.7115 258.469L40.225 259.373C39.6619 260.137 39.2972 260.987 39.1323 261.92C38.9645 262.853 38.9982 263.724 39.2287 264.527C39.268 264.705 39.3191 264.882 39.3818 265.046C39.4489 265.216 39.5247 265.374 39.6108 265.53C40.1739 266.441 40.8229 267.04 41.561 267.329C42.2977 267.621 42.9788 267.712 43.6048 267.602C43.7827 267.586 43.9548 267.551 44.121 267.492C44.2845 267.434 44.4376 267.367 44.5805 267.288C45.3478 266.885 45.7431 266.271 45.7564 265.459C45.7745 264.646 45.7037 263.781 45.5637 262.871C45.5524 262.858 45.5524 262.844 45.5524 262.83C45.557 262.817 45.5538 262.806 45.5456 262.789C45.5343 262.734 45.5253 262.673 45.5178 262.606C45.511 262.541 45.5043 262.479 45.493 262.425C45.4464 262.084 45.3939 261.696 45.3281 261.258C45.2671 260.819 45.2333 260.358 45.2275 259.874C45.2229 258.953 45.3969 258.012 45.7542 257.045C46.1101 256.08 46.8599 255.29 48.0136 254.678C49.4184 253.927 50.8421 253.782 52.2891 254.243C53.739 254.693 54.8317 255.574 55.5712 256.869L55.7039 257.1C55.9578 257.548 56.146 257.964 56.2683 258.339C56.3879 258.72 56.4623 259.073 56.4829 259.404C56.5134 259.749 56.5252 260.041 56.5135 260.278C56.5044 260.515 56.518 260.723 56.5587 260.906C56.5519 260.928 56.5519 260.958 56.5609 260.992C56.5722 261.028 56.5842 261.061 56.6018 261.09C56.6792 261.192 56.7739 261.278 56.8877 261.347C57.0001 261.419 57.14 261.452 57.3019 261.443L57.4347 261.676L57.8854 262.465ZM56.8395 284.923L56.4967 286.195C54.5771 285.783 53.0774 285.237 51.9994 284.565C50.9185 283.892 50.0404 283.119 49.3623 282.243L49.1769 282.048C47.6147 280.006 46.9859 277.741 47.288 275.25C47.5912 272.76 48.9668 270.625 51.4203 268.848C53.9147 267.037 56.3902 266.367 58.848 266.831C61.306 267.296 63.2168 268.382 64.5822 270.079C64.6026 270.109 64.6216 270.133 64.639 270.157C64.6548 270.174 64.6682 270.192 64.6815 270.208L64.8434 270.417C65.1598 270.829 65.4282 271.219 65.6455 271.586C65.8673 271.959 66.041 272.285 66.1663 272.568C66.2436 272.753 66.3078 272.917 66.3589 273.058C66.4114 273.196 66.4494 273.299 66.4815 273.367C66.5615 273.593 66.6507 273.794 66.7425 273.971C66.8316 274.147 66.9249 274.311 67.021 274.463C67.081 274.51 67.1452 274.549 67.2196 274.583C67.2895 274.62 67.3698 274.649 67.4573 274.675C67.4663 274.688 67.4835 274.699 67.5011 274.708C67.5215 274.715 67.5418 274.724 67.5667 274.726C67.5945 274.733 67.6162 274.733 67.6323 274.746C67.6526 274.754 67.6732 274.759 67.6981 274.763C67.7214 274.768 67.7505 274.77 67.7738 274.776C67.8017 274.778 67.8263 274.781 67.8525 274.787L68.016 274.996L68.6067 275.761L64.9965 278.379L64.833 278.166L64.2423 277.403C64.7762 276.599 65.0227 275.71 64.9789 274.736C64.9323 273.77 64.6872 272.881 64.2483 272.076C64.184 271.968 64.1227 271.864 64.0601 271.768C63.9943 271.669 63.9316 271.579 63.8645 271.497C62.6728 270.045 61.3221 269.503 59.8168 269.867C58.3098 270.233 56.8527 270.872 55.4407 271.783C55.2057 271.954 54.9694 272.122 54.7345 272.283C54.4939 272.442 54.2635 272.605 54.0446 272.764C53.8259 272.925 53.604 273.091 53.375 273.268C53.1461 273.443 52.9229 273.625 52.6997 273.807C51.594 274.763 50.7785 275.89 50.2447 277.19C49.7166 278.491 50.0739 279.978 51.3255 281.647C51.747 282.158 52.2212 282.609 52.7479 282.996C53.2773 283.384 53.8681 283.718 54.5158 283.996C54.8484 284.13 55.1926 284.261 55.5515 284.387C55.9117 284.51 56.2851 284.62 56.676 284.713L56.8395 284.923ZM74.8063 282.423L74.087 283.072C74.0361 283.02 73.9674 282.967 73.8771 282.916C73.791 282.864 73.6962 282.82 73.594 282.792C73.3884 282.71 73.1462 282.679 72.8706 282.701C72.5947 282.723 72.3046 282.864 72.0099 283.129L67.6031 287.088L73.8902 293.642L78.3027 289.684C78.3421 289.647 78.3844 289.608 78.4325 289.565C78.4791 289.523 78.5171 289.478 78.5433 289.43C78.7199 289.225 78.8278 288.981 78.8717 288.698C78.9124 288.421 78.8016 288.091 78.5331 287.704L79.2552 287.06L79.442 287.253L84.0733 292.081L83.3527 292.727C82.9895 292.453 82.6395 292.315 82.3025 292.315C81.9669 292.317 81.6271 292.475 81.2784 292.785L70.9932 302.053C70.6721 302.343 70.4928 302.608 70.449 302.849C70.4083 303.09 70.4781 303.395 70.6577 303.766C70.669 303.803 70.6839 303.845 70.7 303.89C70.718 303.93 70.7393 303.979 70.7612 304.03L70.0422 304.679L69.8554 304.486L65.2226 299.659L65.9447 299.009C65.9942 299.035 66.041 299.058 66.0846 299.079C66.1299 299.101 66.1737 299.117 66.2086 299.131C66.5763 299.33 66.8869 299.423 67.1393 299.398C67.3917 299.376 67.6775 299.223 67.997 298.935L72.8297 294.597L66.5398 288.04L61.7072 292.38C61.4139 292.644 61.2373 292.918 61.1717 293.201C61.112 293.488 61.2185 293.878 61.4985 294.375L60.7735 295.024L60.5867 294.834L55.9569 290.001L56.6776 289.354C57.1706 289.608 57.56 289.729 57.8431 289.714C58.1276 289.698 58.4236 289.554 58.7329 289.276L69.0341 280.028C69.3287 279.762 69.4965 279.504 69.5388 279.25C69.5827 278.995 69.5695 278.765 69.4994 278.565C69.4761 278.463 69.4411 278.368 69.3945 278.28C69.3434 278.192 69.3025 278.113 69.2674 278.049L69.9881 277.402L70.1749 277.597L74.8063 282.423ZM91.9502 297.936C94.284 299.773 95.4701 301.979 95.492 304.559C95.5196 307.14 94.7641 309.36 93.2251 311.218C93.2115 311.232 93.207 311.241 93.2004 311.25C93.1936 311.254 93.1846 311.267 93.1726 311.279C91.2967 313.509 89.0417 314.694 86.4072 314.835C83.7712 314.983 81.4724 314.279 79.5046 312.731L79.2742 312.586C77.3195 311.024 76.1468 308.981 75.7558 306.455C75.3648 303.93 76.1074 301.554 77.9818 299.326C77.9954 299.313 78.0022 299.301 78.0081 299.294C78.0149 299.287 78.0216 299.276 78.0343 299.263C79.6039 297.427 81.6942 296.26 84.3126 295.762C86.9264 295.262 89.4032 295.931 91.7387 297.77L91.9502 297.936ZM90.9321 298.939C89.844 298.107 88.6098 297.774 87.227 297.938C85.8426 298.097 84.0062 299.538 81.7175 302.264C79.7031 304.655 78.6485 306.548 78.5478 307.938C78.4486 309.327 79.0306 310.54 80.2952 311.582C81.6228 312.579 82.9719 312.886 84.3504 312.505C85.7289 312.122 87.4269 310.735 89.4383 308.34C91.7168 305.633 92.8006 303.601 92.6898 302.254C92.579 300.906 91.9924 299.8 90.9321 298.939ZM100.551 304.563L106.235 308.29L105.681 309.077C105.274 308.872 104.934 308.809 104.661 308.883C104.384 308.961 104.162 309.092 103.99 309.277C103.897 309.345 103.819 309.422 103.761 309.51C103.699 309.6 103.639 309.682 103.575 309.772C103.575 309.772 103.573 309.777 103.566 309.785C103.563 309.792 103.559 309.794 103.559 309.794L95.196 321.731L100.109 324.951C101.029 325.554 101.986 325.783 102.983 325.637C103.977 325.491 104.786 325.098 105.41 324.462L105.636 324.61L106.45 325.142L103.732 329.02L103.509 328.872L89.583 319.743L90.1343 318.957C90.5574 319.171 90.9147 319.237 91.2008 319.158C91.4866 319.083 91.7288 318.944 91.9257 318.756C92.0015 318.679 92.0759 318.598 92.146 318.514C92.2159 318.43 92.2728 318.356 92.3253 318.282L99.9382 307.421C100.215 307.026 100.366 306.662 100.391 306.328C100.415 305.995 100.21 305.616 99.772 305.203L100.328 304.412L100.551 304.563ZM105.305 328.704C105.434 328.724 105.662 328.719 105.987 328.693C106.316 328.662 106.715 328.514 107.188 328.244C107.326 328.167 107.462 328.085 107.598 327.989C107.733 327.896 107.869 327.793 108.005 327.681L117.97 319.721C118.071 319.631 118.175 319.535 118.278 319.423C118.382 319.315 118.472 319.199 118.551 319.078C118.639 318.982 118.716 318.87 118.786 318.747C118.857 318.626 118.918 318.506 118.973 318.393C119.037 318.268 119.003 318.111 118.882 317.932C118.758 317.746 118.552 317.599 118.264 317.488C118.23 317.474 118.195 317.458 118.156 317.437C118.11 317.419 118.075 317.403 118.043 317.387L118.462 316.525C119.162 316.785 119.773 316.922 120.301 316.936C120.828 316.949 121.271 316.916 121.636 316.827C121.743 316.816 121.845 316.793 121.941 316.759C122.039 316.727 122.126 316.69 122.208 316.648L122.454 316.761L123.347 317.164L123.47 333.233C123.485 334.489 123.559 335.393 123.691 335.948C123.824 336.508 124.008 336.937 124.244 337.237C124.262 337.244 124.276 337.259 124.287 337.274C124.3 337.291 124.313 337.308 124.322 337.33L123.903 338.194L123.655 338.082L116.574 334.868L116.993 334.003L117.066 334.039C117.429 334.204 117.775 334.218 118.099 334.084C118.428 333.95 118.682 333.759 118.86 333.511C118.886 333.46 118.911 333.419 118.937 333.383C118.967 333.349 118.994 333.307 119.016 333.26C119.03 333.226 119.05 333.17 119.064 333.091C119.082 333.012 119.092 332.933 119.089 332.854C119.096 332.836 119.107 332.823 119.114 332.806C119.121 332.79 119.123 332.771 119.112 332.746C119.128 332.676 119.138 332.614 119.142 332.559C119.154 332.502 119.154 332.454 119.156 332.415L119.142 330.509L111.491 327.038L110.163 328.16C110.131 328.179 110.101 328.209 110.078 328.237C110.055 328.266 110.027 328.289 109.995 328.316C109.931 328.366 109.862 328.423 109.791 328.487C109.718 328.552 109.652 328.629 109.588 328.718C109.55 328.756 109.515 328.807 109.489 328.861C109.459 328.917 109.43 328.978 109.401 329.041C109.279 329.295 109.273 329.593 109.383 329.923C109.49 330.258 109.831 330.62 110.404 331.017L109.988 331.879L109.743 331.769L104.886 329.563L105.305 328.704ZM119.077 320.985L112.894 326.012L112.846 326.108L119.04 328.916L119.072 328.842L119.077 320.985ZM131.93 321.328L144.643 325.833C144.987 325.955 145.251 326.026 145.438 326.046C145.624 326.065 145.81 325.985 145.995 325.806L146.25 325.896L146.893 326.122L145.209 330.572L144.95 330.48L144.027 330.15C144.141 328.878 143.925 327.963 143.377 327.413C142.827 326.86 142.004 326.391 140.908 326.003L136.878 324.574L134.496 330.857L137.091 331.777C137.774 332.019 138.356 332.101 138.834 332.014C139.313 331.934 139.663 331.599 139.88 331.019L139.898 330.97L140.155 331.061L141.081 331.392L139.388 335.86L139.129 335.77L138.205 335.441C138.326 335.015 138.34 334.664 138.241 334.383C138.143 334.105 138.018 333.882 137.868 333.717C137.723 333.59 137.577 333.49 137.428 333.419C137.281 333.349 137.172 333.301 137.103 333.275L133.996 332.173L131.287 339.329L137.189 341.42C138.235 341.794 139.221 341.79 140.149 341.414C141.078 341.038 141.765 340.468 142.21 339.705L142.467 339.797L143.39 340.126L141.724 344.522L141.468 344.432L125.339 338.713L125.68 337.819C126.145 337.928 126.504 337.908 126.764 337.765C127.021 337.623 127.223 337.435 127.368 337.206C127.423 337.113 127.476 337.017 127.52 336.921C127.566 336.826 127.606 336.737 127.638 336.653L132.304 324.332C132.33 324.267 132.358 324.197 132.387 324.122C132.415 324.049 132.433 323.975 132.44 323.902C132.508 323.622 132.5 323.336 132.419 323.035C132.339 322.733 132.065 322.46 131.592 322.22L131.93 321.328ZM167.642 330.532L167.021 334.803L166.749 334.767L165.695 334.621C165.594 333.54 165.282 332.701 164.761 332.104C164.239 331.509 163.668 331.07 163.046 330.789C162.803 330.685 162.567 330.601 162.338 330.534C162.109 330.466 161.884 330.418 161.669 330.388C160.782 330.285 160.086 330.424 159.58 330.798C159.073 331.176 158.738 331.62 158.572 332.13C158.558 332.201 158.545 332.266 158.526 332.326C158.511 332.385 158.497 332.454 158.487 332.52C158.408 333.062 158.519 333.536 158.818 333.943C159.119 334.347 159.459 334.693 159.842 334.977C160.111 335.155 160.364 335.31 160.604 335.441C160.842 335.572 161.038 335.675 161.195 335.747C161.278 335.797 161.355 335.837 161.423 335.873C161.491 335.908 161.568 335.949 161.654 335.998C163.266 336.821 164.65 337.722 165.805 338.7C166.962 339.675 167.406 341.09 167.136 342.94C166.904 344.548 166.087 345.852 164.691 346.855C163.291 347.858 161.572 348.221 159.532 347.944L159.259 347.933C158.665 347.835 158.143 347.709 157.697 347.559C157.247 347.411 156.842 347.265 156.473 347.126C156.422 347.101 156.363 347.076 156.292 347.049C156.222 347.021 156.162 346.995 156.11 346.973C155.835 346.844 155.592 346.74 155.382 346.656C155.173 346.576 154.972 346.513 154.776 346.469C154.61 346.465 154.469 346.489 154.35 346.544C154.231 346.597 154.139 346.659 154.075 346.72C154.057 346.733 154.034 346.758 154.009 346.792C153.986 346.825 153.965 346.848 153.945 346.863L153.904 346.939L153.635 346.901L152.795 346.785L153.161 342.161L153.434 342.198L154.492 342.342C154.785 343.237 155.268 344.028 155.94 344.718C156.614 345.405 157.351 345.902 158.153 346.206C158.328 346.283 158.502 346.348 158.68 346.398C158.855 346.449 159.034 346.484 159.214 346.513C160.303 346.623 161.189 346.482 161.873 346.085C162.558 345.686 163.04 345.214 163.323 344.663C163.418 344.518 163.492 344.364 163.543 344.2C163.594 344.038 163.63 343.88 163.654 343.722C163.775 342.884 163.502 342.214 162.84 341.714C162.176 341.215 161.425 340.748 160.585 340.312C160.567 340.31 160.554 340.303 160.547 340.294C160.538 340.285 160.527 340.277 160.507 340.277C160.455 340.25 160.401 340.223 160.341 340.189C160.281 340.154 160.226 340.123 160.175 340.096C159.867 339.931 159.514 339.74 159.111 339.526C158.71 339.311 158.309 339.059 157.908 338.774C157.142 338.225 156.467 337.522 155.882 336.667C155.296 335.814 155.096 334.758 155.278 333.5C155.501 331.962 156.236 330.771 157.482 329.929C158.728 329.08 160.111 328.761 161.628 328.965L161.896 329.003C162.421 329.075 162.875 329.176 163.26 329.311C163.646 329.442 163.983 329.599 164.269 329.781C164.576 329.964 164.824 330.132 165.013 330.282C165.202 330.433 165.384 330.547 165.556 330.623C165.572 330.645 165.597 330.661 165.633 330.673C165.667 330.688 165.703 330.697 165.738 330.704C165.868 330.701 165.995 330.678 166.122 330.633C166.247 330.589 166.357 330.5 166.449 330.371L166.72 330.409L167.642 330.532ZM169.576 330.202L183.107 330.658C183.47 330.671 183.746 330.658 183.93 330.621C184.112 330.583 184.262 330.45 184.38 330.225L184.656 330.234L185.339 330.259L185.167 334.99L184.892 334.979L183.909 334.946C183.609 333.703 183.108 332.898 182.41 332.541C181.71 332.181 180.777 331.983 179.612 331.944L175.32 331.797L175.078 338.488L177.838 338.579C178.57 338.605 179.147 338.506 179.573 338.28C180.001 338.059 180.226 337.635 180.251 337.019L180.252 336.968L180.525 336.977L181.508 337.009L181.338 341.77L181.063 341.759L180.079 341.726C180.058 341.283 179.958 340.945 179.774 340.709C179.59 340.473 179.402 340.298 179.205 340.187C179.026 340.109 178.854 340.06 178.689 340.037C178.527 340.013 178.407 340.001 178.336 339.999L175.027 339.886L174.753 347.501L181.04 347.714C182.151 347.752 183.089 347.452 183.851 346.815C184.612 346.18 185.082 345.433 185.26 344.573L185.531 344.584L186.517 344.614L186.347 349.295L186.074 349.287L168.908 348.707L168.942 347.754C169.419 347.718 169.756 347.594 169.954 347.378C170.152 347.165 170.284 346.925 170.348 346.664C170.371 346.558 170.387 346.454 170.402 346.348C170.415 346.243 170.422 346.146 170.427 346.057L170.901 332.944C170.901 332.874 170.905 332.799 170.907 332.72C170.91 332.641 170.905 332.564 170.889 332.494C170.861 332.209 170.762 331.937 170.59 331.676C170.417 331.413 170.068 331.24 169.541 331.151L169.576 330.202ZM187.542 330.902L195.605 330.222C198.731 329.955 201.116 330.284 202.766 331.207C204.413 332.13 205.594 333.189 206.308 334.387C206.802 335.212 207.14 336.021 207.323 336.811C207.502 337.6 207.614 338.225 207.657 338.682C207.778 340.015 207.643 341.288 207.26 342.5C206.876 343.709 206.143 344.829 205.066 345.858C204.71 346.189 204.344 346.476 203.962 346.721C203.581 346.967 203.192 347.185 202.786 347.379C201.787 347.853 200.826 348.169 199.907 348.325C198.986 348.483 198.32 348.579 197.901 348.616L197.63 348.64L188.937 349.374L188.853 348.424C189.503 348.157 189.872 347.888 189.96 347.614C190.045 347.34 190.071 347.02 190.037 346.652C190.036 346.634 190.035 346.622 190.035 346.613C190.033 346.602 190.03 346.589 190.028 346.572L188.847 333.5C188.847 333.482 188.844 333.47 188.844 333.46C188.843 333.453 188.84 333.438 188.84 333.422C188.806 333.052 188.725 332.741 188.592 332.485C188.459 332.231 188.046 332.029 187.355 331.873L187.267 330.925L187.542 330.902ZM194.505 347.496L196.358 347.338C196.757 347.304 197.223 347.237 197.754 347.14C198.285 347.041 198.823 346.872 199.372 346.632C200.373 346.192 201.257 345.399 202.025 344.255C202.789 343.111 203.068 341.363 202.852 339.006C202.627 336.512 201.962 334.755 200.852 333.732C199.745 332.712 198.576 332.075 197.344 331.825C196.861 331.743 196.381 331.695 195.903 331.681C195.427 331.67 194.988 331.68 194.588 331.713L193.089 331.84L194.505 347.496ZM211.029 329.783L218.788 328.336L218.985 329.295C218.949 329.304 218.908 329.312 218.864 329.318C218.819 329.326 218.778 329.335 218.743 329.343C218.241 329.436 217.882 329.618 217.668 329.881C217.45 330.147 217.378 330.448 217.446 330.775C217.464 330.863 217.49 330.953 217.529 331.056C217.569 331.156 217.615 331.255 217.674 331.351C217.726 331.431 217.78 331.51 217.833 331.589C217.888 331.671 217.939 331.742 217.989 331.804L225.071 340.728L225.206 340.704L227.8 329.749C227.811 329.711 227.818 329.679 227.823 329.651C227.827 329.624 227.834 329.589 227.843 329.555C227.878 329.436 227.9 329.318 227.91 329.189C227.921 329.059 227.915 328.928 227.887 328.79C227.82 328.46 227.661 328.236 227.411 328.11C227.165 327.986 226.909 327.915 226.642 327.893C226.494 327.886 226.341 327.888 226.186 327.897C226.03 327.912 225.909 327.925 225.818 327.942L225.627 327.008L225.896 326.957L231.291 325.932L231.481 326.864C230.948 327.073 230.55 327.385 230.289 327.794C230.027 328.203 229.83 328.706 229.692 329.311L225.725 345.862L225.457 345.914L224.437 346.108L213.545 332.298C213.47 332.204 213.398 332.106 213.319 332.004C213.243 331.901 213.155 331.797 213.058 331.69C212.824 331.447 212.537 331.225 212.2 331.031C211.866 330.832 211.447 330.747 210.948 330.771L210.76 329.836L211.029 329.783ZM231.069 325.349L237.576 323.409L237.865 324.319C237.5 324.484 237.255 324.68 237.139 324.91C237.02 325.137 236.955 325.359 236.944 325.563C236.96 325.724 236.98 325.872 237.013 325.998C237.045 326.129 237.076 326.236 237.102 326.319C237.107 326.333 237.111 326.346 237.113 326.356C237.118 326.367 237.118 326.371 237.118 326.371L241.11 338.911C241.11 338.911 241.113 338.913 241.115 338.922C241.119 338.931 241.119 338.942 241.128 338.96C241.153 339.047 241.191 339.15 241.241 339.274C241.289 339.396 241.356 339.529 241.438 339.671C241.566 339.835 241.747 339.983 241.976 340.106C242.205 340.232 242.523 340.263 242.924 340.198L243.213 341.108L242.952 341.185L236.443 343.124L236.153 342.217C236.554 342.039 236.814 341.826 236.933 341.568C237.051 341.31 237.096 341.047 237.07 340.782C237.054 340.675 237.034 340.563 237.008 340.45C236.981 340.339 236.954 340.24 236.927 340.155L232.932 327.617C232.907 327.532 232.872 327.435 232.828 327.329C232.785 327.222 232.736 327.123 232.688 327.026C232.56 326.804 232.372 326.615 232.122 326.461C231.871 326.305 231.529 326.264 231.095 326.337L230.807 325.428L231.069 325.349ZM237.722 323.021L238.736 322.621C239.022 322.644 239.303 322.632 239.592 322.586C239.876 322.538 240.181 322.454 240.499 322.327L251.803 317.885C251.97 317.817 252.122 317.748 252.261 317.675C252.398 317.601 252.539 317.527 252.684 317.451C252.787 317.373 252.891 317.29 252.993 317.201C253.092 317.115 253.197 317.012 253.31 316.893L253.559 316.794L254.548 316.405L256.403 320.817L256.148 320.916L255.235 321.273C254.771 320.827 254.316 320.494 253.868 320.271C253.42 320.047 252.995 319.898 252.592 319.831C252.052 319.719 251.575 319.706 251.158 319.794C250.742 319.883 250.408 319.973 250.154 320.073L248.725 320.607L254.472 334.283C254.625 334.642 254.827 334.901 255.079 335.06C255.331 335.217 255.747 335.258 256.328 335.181L256.697 336.063L256.443 336.162L250.135 338.644L249.764 337.762C249.807 337.727 249.847 337.69 249.885 337.657C249.918 337.625 249.949 337.592 249.975 337.564C250.299 337.303 250.496 337.056 250.563 336.821C250.63 336.584 250.583 336.268 250.418 335.876L244.668 322.201L243.514 322.685C243.259 322.784 242.995 322.908 242.712 323.059C242.431 323.206 242.158 323.389 241.897 323.606C241.485 323.939 241.134 324.381 240.845 324.933C240.556 325.484 240.435 326.198 240.489 327.072L240.237 327.172L239.324 327.531L237.467 323.121L237.722 323.021ZM262.397 333.145C262.494 333.054 262.626 332.876 262.798 332.608C262.971 332.337 263.086 331.936 263.144 331.409C263.167 331.259 263.178 331.102 263.179 330.94C263.181 330.778 263.181 330.611 263.166 330.436L262.533 317.953C262.523 317.822 262.503 317.682 262.471 317.536C262.439 317.39 262.403 317.256 262.35 317.122C262.322 316.995 262.277 316.868 262.217 316.739C262.158 316.61 262.096 316.49 262.035 316.383C261.968 316.258 261.821 316.189 261.596 316.176C261.373 316.161 261.128 316.231 260.862 316.388C260.829 316.406 260.792 316.425 260.754 316.444C260.711 316.466 260.677 316.484 260.646 316.504L260.178 315.661C260.814 315.273 261.296 314.881 261.622 314.483C261.95 314.083 262.185 313.713 262.333 313.38C262.385 313.293 262.427 313.202 262.458 313.105C262.487 313.01 262.509 312.919 262.522 312.83L262.764 312.704L263.634 312.257L277.017 321.775C278.067 322.513 278.86 322.998 279.404 323.228C279.945 323.458 280.41 323.572 280.801 323.57C280.817 323.563 280.836 323.559 280.854 323.559C280.876 323.556 280.899 323.559 280.922 323.567L281.388 324.407L281.147 324.534L274.247 328.098L273.783 327.257L273.853 327.226C274.211 327.038 274.429 326.78 274.513 326.447C274.596 326.113 274.59 325.801 274.495 325.512C274.467 325.467 274.448 325.421 274.435 325.376C274.421 325.335 274.403 325.289 274.377 325.244C274.358 325.214 274.323 325.165 274.267 325.104C274.212 325.042 274.15 324.988 274.088 324.943C274.076 324.926 274.069 324.912 274.058 324.895C274.052 324.877 274.035 324.868 274.01 324.863C273.959 324.808 273.914 324.761 273.872 324.724C273.83 324.685 273.793 324.655 273.758 324.63L272.172 323.501L264.72 327.354L264.853 329.057C264.853 329.094 264.859 329.132 264.871 329.167C264.878 329.202 264.882 329.239 264.882 329.279C264.887 329.358 264.891 329.444 264.902 329.538C264.914 329.634 264.939 329.732 264.972 329.835C264.981 329.888 265 329.943 265.031 329.998C265.064 330.052 265.093 330.11 265.127 330.172C265.266 330.422 265.506 330.602 265.848 330.718C266.189 330.829 266.697 330.781 267.369 330.574L267.831 331.415L267.589 331.54L262.867 333.984L262.397 333.145ZM264.243 317.85L264.706 325.655L264.76 325.744L270.789 322.626L270.753 322.557L264.243 317.85ZM290.77 293.019L296.735 287.724C299.047 285.675 301.146 284.528 303.036 284.289C304.924 284.05 306.529 284.195 307.847 284.723C308.757 285.089 309.538 285.529 310.177 286.047C310.819 286.569 311.3 286.997 311.622 287.335C312.557 288.324 313.256 289.41 313.711 290.595C314.168 291.782 314.292 293.102 314.086 294.553C314.015 295.024 313.904 295.467 313.756 295.889C313.609 296.305 313.435 296.71 313.234 297.104C312.744 298.067 312.18 298.883 311.548 299.55C310.921 300.216 310.448 300.686 310.14 300.961L309.939 301.14L303.508 306.845L302.844 306.142C303.193 305.547 303.315 305.115 303.209 304.847C303.108 304.582 302.924 304.309 302.667 304.036C302.654 304.025 302.647 304.016 302.64 304.009C302.633 304.002 302.622 303.991 302.612 303.979L293.441 294.307C293.43 294.299 293.423 294.288 293.413 294.281C293.409 294.274 293.4 294.263 293.387 294.251C293.129 293.976 292.864 293.778 292.598 293.657C292.334 293.531 291.877 293.613 291.233 293.898L290.569 293.197L290.77 293.019ZM306.743 302.073L308.114 300.86C308.409 300.596 308.736 300.268 309.096 299.878C309.455 299.491 309.776 299.035 310.057 298.523C310.575 297.586 310.778 296.434 310.665 295.076C310.55 293.716 309.669 292.166 308.016 290.425C306.268 288.579 304.631 287.576 303.109 287.421C301.585 287.264 300.261 287.446 299.127 287.975C298.688 288.192 298.277 288.438 297.893 288.71C297.507 288.981 297.165 289.248 296.87 289.51L295.762 290.492L306.743 302.073ZM306.249 279.621L310.848 274.762L311.571 275.404C311.341 275.727 311.236 276.016 311.253 276.272C311.271 276.526 311.331 276.744 311.428 276.931C311.529 277.062 311.619 277.176 311.714 277.271C311.809 277.368 311.892 277.444 311.959 277.505C311.971 277.518 311.983 277.525 311.987 277.532C311.994 277.538 311.998 277.541 311.998 277.541L322.005 286.401C322.005 286.401 322.007 286.403 322.016 286.412C322.023 286.416 322.035 286.425 322.049 286.439C322.114 286.498 322.2 286.57 322.305 286.652C322.415 286.735 322.54 286.818 322.687 286.897C322.883 286.978 323.112 287.014 323.379 287.01C323.641 287.004 323.929 286.876 324.242 286.625L324.969 287.268L324.784 287.464L320.186 292.324L319.458 291.679C319.713 291.33 319.824 291.018 319.793 290.738C319.761 290.46 319.662 290.209 319.497 289.993C319.43 289.909 319.354 289.824 319.274 289.74C319.193 289.656 319.116 289.585 319.051 289.524L309.043 280.664C308.976 280.603 308.895 280.538 308.804 280.469C308.709 280.397 308.615 280.334 308.523 280.275C308.3 280.146 308.036 280.077 307.737 280.066C307.441 280.053 307.125 280.186 306.789 280.461L306.064 279.816L306.249 279.621ZM320.605 264.45L324.048 267.191L323.871 267.397L323.193 268.191C322.188 267.71 321.285 267.529 320.487 267.647C319.689 267.764 319.006 268.008 318.433 268.375C318.214 268.52 318.016 268.67 317.835 268.825C317.655 268.979 317.498 269.135 317.359 269.303C316.804 269.981 316.563 270.625 316.632 271.238C316.697 271.854 316.916 272.364 317.279 272.768C317.336 272.814 317.386 272.859 317.429 272.905C317.472 272.949 317.523 272.996 317.578 273.041C318.016 273.387 318.49 273.544 319.006 273.508C319.52 273.472 320.003 273.371 320.452 273.203C320.749 273.078 321.019 272.946 321.257 272.819C321.496 272.689 321.689 272.581 321.838 272.491C321.922 272.445 322.001 272.404 322.067 272.368C322.135 272.328 322.211 272.287 322.297 272.241C323.867 271.345 325.382 270.672 326.845 270.228C328.314 269.783 329.79 270.157 331.283 271.345C332.578 272.376 333.303 273.729 333.456 275.41C333.611 277.084 333.033 278.691 331.725 280.229L331.57 280.452C331.175 280.89 330.794 281.255 330.429 281.544C330.06 281.838 329.726 282.095 329.407 282.326C329.36 282.356 329.303 282.394 329.243 282.435C329.185 282.48 329.13 282.516 329.081 282.547C328.823 282.707 328.604 282.851 328.424 282.982C328.243 283.113 328.082 283.246 327.941 283.384C327.852 283.518 327.798 283.649 327.785 283.775C327.769 283.902 327.776 284.009 327.798 284.095C327.801 284.118 327.81 284.149 327.828 284.184C327.841 284.221 327.852 284.252 327.854 284.277L327.9 284.346L327.728 284.55L327.187 285.184L323.303 282.469L323.476 282.261L324.153 281.465C325.097 281.693 326.046 281.705 327.006 281.511C327.963 281.314 328.786 280.963 329.473 280.459C329.631 280.358 329.782 280.246 329.919 280.128C330.056 280.009 330.181 279.88 330.297 279.743C330.964 278.905 331.301 278.099 331.308 277.329C331.315 276.555 331.15 275.912 330.813 275.39C330.733 275.236 330.637 275.095 330.52 274.967C330.404 274.841 330.281 274.727 330.156 274.627C329.479 274.089 328.748 273.962 327.962 274.249C327.172 274.536 326.367 274.912 325.546 275.376C325.535 275.389 325.523 275.398 325.51 275.4C325.498 275.4 325.483 275.406 325.475 275.42C325.422 275.449 325.368 275.482 325.307 275.513C325.246 275.544 325.19 275.575 325.143 275.604C324.833 275.768 324.48 275.961 324.083 276.182C323.682 276.399 323.252 276.599 322.792 276.781C321.907 277.127 320.935 277.319 319.875 277.357C318.819 277.392 317.781 277.007 316.769 276.198C315.529 275.206 314.863 273.983 314.769 272.514C314.671 271.046 315.112 269.738 316.085 268.595L316.26 268.39C316.595 267.994 316.922 267.672 317.24 267.425C317.558 267.176 317.872 266.981 318.183 266.838C318.504 266.682 318.782 266.566 319.011 266.488C319.243 266.411 319.44 266.321 319.597 266.218C319.622 266.216 319.653 266.202 319.681 266.181C319.711 266.158 319.739 266.136 319.761 266.103C319.829 266.001 319.876 265.885 319.902 265.756C319.927 265.629 319.909 265.492 319.84 265.348L320.015 265.144L320.605 264.45ZM343.641 257.47L345.002 257.377C345.204 259.268 345.152 260.815 344.841 262.02C344.527 263.222 344.051 264.275 343.41 265.176L343.279 265.409C341.778 267.493 339.759 268.797 337.222 269.317C334.686 269.833 332.156 269.255 329.63 267.578C327.06 265.872 325.608 263.819 325.279 261.416C324.949 259.015 325.397 256.917 326.628 255.121C326.646 255.094 326.664 255.067 326.68 255.046C326.696 255.027 326.71 255.008 326.72 254.991L326.873 254.774C327.175 254.352 327.471 253.982 327.761 253.661C328.055 253.342 328.321 253.082 328.555 252.873C328.715 252.744 328.854 252.633 328.974 252.542C329.093 252.45 329.182 252.38 329.239 252.333C329.433 252.183 329.601 252.041 329.744 251.9C329.89 251.759 330.018 251.62 330.139 251.485C330.167 251.417 330.181 251.345 330.193 251.265C330.204 251.189 330.211 251.104 330.204 251.018C330.216 251.003 330.222 250.987 330.222 250.967C330.227 250.945 330.227 250.925 330.221 250.9C330.214 250.875 330.214 250.853 330.219 250.835C330.221 250.813 330.219 250.791 330.214 250.768C330.212 250.743 330.203 250.719 330.201 250.693C330.196 250.668 330.189 250.644 330.187 250.62L330.342 250.403L330.899 249.617L334.619 252.089L334.463 252.306L333.907 253.091C332.944 252.859 331.995 252.919 331.06 253.268C330.123 253.623 329.332 254.126 328.685 254.789C328.599 254.881 328.519 254.974 328.443 255.064C328.368 255.153 328.301 255.241 328.238 255.328C327.198 256.883 327.104 258.295 327.94 259.557C328.778 260.821 329.871 261.954 331.217 262.954C331.459 263.114 331.696 263.279 331.932 263.447C332.168 263.612 332.399 263.77 332.625 263.921C332.847 264.07 333.086 264.221 333.329 264.372C333.576 264.525 333.824 264.674 334.076 264.821C335.364 265.526 336.732 265.914 338.175 265.985C339.618 266.054 340.958 265.248 342.194 263.569C342.56 263.022 342.853 262.443 343.062 261.834C343.273 261.224 343.41 260.581 343.476 259.895C343.502 259.554 343.517 259.19 343.526 258.82C343.532 258.451 343.521 258.072 343.485 257.684L343.641 257.47ZM331.789 247.441L335.036 241.65L335.899 242.104C335.755 242.469 335.726 242.777 335.806 243.02C335.889 243.261 335.999 243.46 336.143 243.615C336.271 243.721 336.39 243.81 336.506 243.882C336.62 243.953 336.719 244.007 336.799 244.051C336.818 244.06 336.827 244.064 336.836 244.068C336.845 244.075 336.847 244.075 336.847 244.075L348.775 250.328C348.775 250.328 348.777 250.332 348.786 250.335C348.795 250.341 348.807 250.345 348.823 250.354C348.901 250.397 349.005 250.447 349.13 250.501C349.256 250.557 349.393 250.607 349.558 250.651C349.771 250.683 350.004 250.664 350.26 250.596C350.512 250.531 350.76 250.337 350.999 250.023L351.867 250.476L351.737 250.709L348.487 256.5L347.622 256.044C347.784 255.648 347.813 255.318 347.711 255.054C347.612 254.792 347.453 254.573 347.239 254.401C347.151 254.333 347.059 254.271 346.958 254.207C346.858 254.145 346.767 254.09 346.689 254.052L334.764 247.795C334.682 247.753 334.589 247.707 334.479 247.662C334.371 247.614 334.265 247.573 334.161 247.538C333.909 247.468 333.639 247.46 333.344 247.518C333.054 247.578 332.778 247.778 332.523 248.125L331.657 247.671L331.789 247.441ZM335.867 241.063L338.386 235.169L352.669 235.758L342.131 226.419L342.236 226.173L344.618 220.6L345.527 220.964C345.444 221.293 345.441 221.568 345.516 221.79C345.588 222.01 345.685 222.19 345.797 222.332C345.924 222.46 346.045 222.55 346.169 222.608C346.293 222.669 346.389 222.712 346.455 222.739L359.472 227.945C359.825 228.088 360.124 228.126 360.368 228.061C360.614 227.998 360.823 227.905 360.994 227.782C361.084 227.703 361.164 227.621 361.231 227.535C361.298 227.446 361.354 227.374 361.398 227.315L362.308 227.679L362.204 227.924L359.602 234.01L358.692 233.647C358.787 233.283 358.797 232.992 358.725 232.769C358.651 232.551 358.547 232.367 358.412 232.218C358.302 232.116 358.186 232.036 358.072 231.981C357.957 231.927 357.865 231.883 357.799 231.856L345.06 226.76L357.855 238.091L357.751 238.337L357.02 240.048L339.453 239.319L352.141 244.395C352.678 244.611 353.108 244.666 353.43 244.566C353.748 244.466 353.996 244.305 354.164 244.089C354.209 244.03 354.252 243.965 354.291 243.897C354.332 243.827 354.367 243.759 354.393 243.694L355.303 244.058L355.2 244.302L353.452 248.385L352.542 248.021C352.71 247.629 352.742 247.303 352.635 247.041C352.53 246.78 352.383 246.572 352.19 246.42C352.05 246.286 351.908 246.187 351.76 246.118C351.61 246.049 351.503 246.001 351.436 245.974L339.328 241.13C338.673 240.867 338.113 240.783 337.647 240.874C337.185 240.965 336.86 241.231 336.671 241.669L335.761 241.307L335.867 241.063ZM344.643 220.441L346.317 214.167L347.27 214.402C347.228 214.921 347.321 215.285 347.556 215.5C347.792 215.714 348.066 215.868 348.377 215.964C348.43 215.977 348.486 215.991 348.539 216.005C348.59 216.016 348.644 216.03 348.699 216.045L356.245 217.928C356.455 217.98 356.667 218.035 356.878 218.086C357.091 218.14 357.306 218.183 357.522 218.222C358.813 218.468 360.061 218.423 361.27 218.09C362.48 217.755 363.364 216.581 363.921 214.57C364.367 212.825 364.309 211.507 363.746 210.62C363.183 209.734 362.481 209.093 361.644 208.701C361.376 208.579 361.103 208.475 360.824 208.387C360.546 208.3 360.283 208.227 360.036 208.163L351.245 205.968C351.245 205.968 351.24 205.968 351.229 205.966C351.218 205.966 351.206 205.961 351.19 205.957C351.099 205.933 351.003 205.913 350.895 205.898C350.787 205.878 350.678 205.864 350.568 205.855C350.355 205.877 350.132 205.96 349.906 206.113C349.676 206.266 349.454 206.569 349.237 207.026L348.283 206.789L348.353 206.531L349.487 202.279L350.442 202.519C350.382 202.94 350.418 203.272 350.542 203.513C350.668 203.755 350.806 203.939 350.961 204.066C351.086 204.154 351.216 204.219 351.344 204.258C351.477 204.3 351.585 204.333 351.675 204.354L360.358 206.526C361.436 206.791 362.425 207.183 363.326 207.687C364.228 208.196 364.929 208.948 365.432 209.951C365.546 210.16 365.648 210.372 365.732 210.583C365.815 210.796 365.885 211.011 365.94 211.224C366.261 212.286 366.36 213.24 366.239 214.085C366.117 214.929 366.012 215.513 365.924 215.837L365.883 216.1C365.529 217.36 365.106 218.374 364.619 219.145C364.13 219.916 363.657 220.519 363.205 220.952C362.935 221.19 362.683 221.39 362.454 221.542C362.228 221.693 362.032 221.813 361.879 221.904C361.768 221.965 361.634 222.034 361.484 222.106C361.334 222.175 361.161 222.256 360.972 222.333C360.496 222.489 359.89 222.597 359.147 222.656C358.406 222.717 357.48 222.608 356.368 222.33L347.601 220.142C347.53 220.125 347.453 220.106 347.364 220.083C347.275 220.061 347.194 220.049 347.117 220.049C346.831 219.995 346.55 220.014 346.268 220.111C345.989 220.203 345.743 220.479 345.526 220.935L344.572 220.697L344.643 220.441ZM351.949 189.61L356.358 190.243L356.318 190.506L356.161 191.526C355.042 191.615 354.171 191.909 353.551 192.409C352.93 192.907 352.472 193.457 352.177 194.054C352.068 194.29 351.979 194.517 351.906 194.738C351.834 194.961 351.782 195.174 351.751 195.386C351.639 196.242 351.774 196.917 352.159 197.408C352.543 197.9 353.001 198.23 353.528 198.397C353.598 198.406 353.666 198.419 353.728 198.438C353.79 198.455 353.857 198.47 353.929 198.48C354.489 198.561 354.979 198.456 355.402 198.173C355.824 197.885 356.183 197.557 356.479 197.19C356.665 196.932 356.829 196.688 356.964 196.458C357.102 196.228 357.211 196.039 357.287 195.887C357.338 195.806 357.382 195.733 357.419 195.668C357.456 195.6 357.498 195.526 357.548 195.444C358.413 193.895 359.357 192.563 360.378 191.451C361.396 190.339 362.86 189.923 364.771 190.201C366.432 190.441 367.773 191.238 368.799 192.597C369.826 193.96 370.187 195.624 369.883 197.597L369.871 197.862C369.765 198.435 369.632 198.939 369.472 199.37C369.313 199.799 369.161 200.194 369.014 200.547C368.989 200.596 368.96 200.657 368.934 200.723C368.904 200.788 368.875 200.848 368.85 200.897C368.716 201.164 368.605 201.395 368.519 201.6C368.434 201.801 368.366 201.996 368.319 202.185C368.315 202.346 368.338 202.484 368.394 202.597C368.449 202.711 368.51 202.803 368.575 202.865C368.588 202.883 368.614 202.906 368.648 202.929C368.68 202.948 368.705 202.972 368.719 202.994L368.798 203.03L368.757 203.291L368.633 204.104L363.853 203.709L363.894 203.447L364.053 202.427C364.979 202.151 365.8 201.689 366.518 201.045C367.236 200.398 367.755 199.688 368.077 198.916C368.159 198.748 368.226 198.58 368.28 198.41C368.332 198.239 368.373 198.065 368.401 197.892C368.525 196.838 368.387 195.981 367.981 195.317C367.575 194.652 367.093 194.181 366.525 193.903C366.374 193.809 366.213 193.738 366.048 193.686C365.88 193.636 365.716 193.598 365.555 193.576C364.686 193.452 363.993 193.707 363.469 194.346C362.948 194.982 362.461 195.705 362.002 196.515C362 196.53 361.993 196.543 361.984 196.553C361.975 196.559 361.966 196.573 361.966 196.588C361.939 196.638 361.909 196.694 361.871 196.748C361.837 196.807 361.804 196.859 361.779 196.91C361.602 197.205 361.404 197.547 361.178 197.933C360.952 198.318 360.689 198.704 360.39 199.091C359.817 199.829 359.086 200.477 358.196 201.037C357.308 201.592 356.218 201.78 354.917 201.591C353.332 201.363 352.105 200.643 351.241 199.428C350.376 198.219 350.058 196.88 350.283 195.414L350.324 195.152C350.403 194.645 350.512 194.206 350.652 193.837C350.792 193.464 350.956 193.14 351.147 192.865C351.339 192.57 351.514 192.333 351.672 192.151C351.826 191.967 351.947 191.794 352.028 191.627C352.05 191.612 352.066 191.588 352.08 191.554C352.096 191.522 352.105 191.488 352.109 191.451C352.111 191.328 352.089 191.204 352.042 191.08C351.995 190.956 351.911 190.851 351.774 190.761L351.813 190.499L351.949 189.61ZM369.22 124.91C339.438 99.4542 312.089 130.211 303.699 152.672L307.556 162.393L308.701 164.796L309.871 166.835L311.056 168.535L312.242 169.918L313.421 171.014L314.582 171.86L315.697 172.469C329.914 146.45 357.104 127.699 374.057 153.778C378.765 146.775 365.674 132.289 369.22 124.91ZM9.13 124.91C38.9107 99.457 66.2583 130.208 74.653 152.668L70.7963 162.393L69.6525 164.796L68.4814 166.835L67.2969 168.535L66.1095 169.918L64.9336 171.014L63.7711 171.86L62.6233 172.488L62.1403 172.673C47.5725 146.851 20.9017 128.233 4.29581 153.778C-0.412912 146.775 12.6775 132.289 9.13 124.91ZM320.818 53.9893C333.835 106.891 299.857 71.7342 303.096 91.3457C309.418 96.5719 297.165 113.74 302.524 128.022C295.475 104.992 357.807 127.062 345.446 79.3221C337.753 79.1104 333.542 55.6979 320.818 53.9893ZM57.5337 53.9893C44.5163 106.891 78.4952 71.7342 75.2554 91.3457C68.9334 96.5719 81.1865 113.74 75.8259 128.022C82.8771 104.992 20.5442 127.062 32.9022 79.3221C40.5968 79.1104 44.8082 55.6979 57.5337 53.9893ZM342.074 172.131C339.11 161.304 316.023 193.749 303.951 160.456L306.73 203.042C311.398 215.545 320.983 214.109 331.802 208.857L333.39 203.682L335.748 194.369L337.719 184.601L339.622 172.165L342.074 172.131ZM36.2777 172.131C39.2432 161.304 62.327 193.749 74.4022 160.456L71.6233 203.042C66.9804 215.469 57.4901 214.124 46.7511 208.953L45.1131 203.674L42.7163 194.357L40.6947 184.588L38.7167 172.164L36.2777 172.131ZM333.539 153.582C352.314 167.203 373.321 177.036 376.364 161.804L370.298 152.976L368.749 151.068L367.17 149.41L365.569 147.997L363.951 146.81L362.321 145.839L360.68 145.072L359.02 144.493L357.345 144.095L355.647 143.872L353.926 143.816L352.177 143.92L350.402 144.187L348.602 144.61L346.78 145.19L344.943 145.922L343.094 146.803L341.242 147.826L339.392 148.99L337.548 150.281L335.719 151.7L333.908 153.239L333.539 153.582ZM49.1041 117.346C49.7284 116.639 50.3512 115.929 50.9696 115.217L51.6991 115.416L54.2343 116.021L56.7301 116.57L59.1617 117.084L61.5014 117.577L63.7173 118.078L65.7812 118.602L67.6556 119.16L69.3084 119.766L70.7043 120.419L71.8101 121.109L72.6255 121.82L73.1826 122.552L73.5386 123.363L73.7123 124.363L73.6523 125.659L73.4891 126.374C72.1558 128.338 69.9736 130.885 67.1934 133.753L65.5304 131.609L63.7609 129.495L61.9012 127.452L59.9581 125.488L57.929 123.618L55.8199 121.848L53.6289 120.196L51.3577 118.672L49.1041 117.346ZM43.9607 153.716C25.5548 167.159 5.20302 176.734 2.03764 162.048L8.01994 153.023L9.53682 151.161L11.0788 149.547L12.6425 148.172L14.2223 147.019L15.8151 146.078L17.4198 145.337L19.0418 144.78L20.6799 144.406L22.3428 144.197L24.0305 144.153L25.7488 144.268L27.495 144.541L29.2688 144.973L31.0642 145.558L32.8776 146.292L34.7067 147.173L36.5389 148.195L38.3753 149.355L40.2031 150.645L42.0205 152.058L43.8221 153.592L43.9607 153.716ZM195.093 91.7819C195.751 91.0947 195.822 88.8683 195.049 88.3744C196.305 88.9627 196.187 91.1596 195.093 91.7819ZM181.238 91.7819C181.895 91.0947 181.969 88.874 181.193 88.3759C182.451 88.9656 182.332 91.1596 181.238 91.7819ZM187.04 97.7639C186.102 98.6924 185.511 98.5992 184.859 98.8448C183.956 99.5121 185.736 100.278 186.955 100.349C188.17 100.342 190.174 99.5388 189.22 98.8363C188.573 98.5992 187.98 98.6911 187.04 97.7639ZM187.125 76.7642C187.125 76.8431 187.125 76.9208 187.125 76.9997C187.094 76.9779 187.061 76.9531 187.035 76.9179C187.011 76.9531 186.991 76.9785 186.959 76.9997C186.959 76.9265 186.956 76.8545 186.956 76.7825C186.855 76.5835 186.781 76.3337 186.643 76.269C186.543 76.4171 186.513 77.1493 186.513 77.0986C186.209 76.8035 186.189 76.5186 185.937 76.2209C185.829 76.6879 185.883 76.7233 185.867 77.2438C185.477 76.7585 185.178 76.6159 185.028 76.465C185.035 76.7161 185.071 76.9829 185.096 77.5302C184.912 77.1649 184.268 76.7078 184.268 76.6159C184.316 76.8134 184.406 77.512 184.424 77.8871C184.204 77.5866 183.762 77.3044 183.61 77.1069C183.628 77.5076 183.781 77.6614 183.897 78.3853C183.897 78.4332 183.289 77.835 182.974 77.6813C183.422 80.0712 183.938 79.4125 182.39 78.2738C182.789 79.2854 184.287 84.2517 183.964 86.0859C183.731 84.7075 182.446 79.5308 181.433 79.1811C181.645 80.211 182.357 82.4938 182.393 83.6056C181.68 81.6246 181.423 80.0487 180.828 79.6297C180.525 80.517 181.156 81.9295 181.509 83.3587C180.965 82.2539 180.423 80.3718 179.816 80.3718C179.666 81.1605 180.434 82.5446 180.736 83.2344C180.736 83.2344 179.614 81.3101 179.158 81.1097C178.906 81.65 179.769 82.5912 179.92 83.3263C179.413 82.9877 178.906 82.3442 178.5 81.804C178.5 82.6913 178.855 82.5912 178.957 83.4744C178.5 82.9383 177.184 81.4103 176.731 80.9601C178.259 81.5653 179.598 78.8945 179.565 77.701C179.412 73.1535 168.186 65.0551 168.689 80.3182C168.842 84.2235 169.455 85.4566 170.766 87.2797C171.421 86.1001 173.594 84.2235 174.455 83.6788C174.455 82.5911 173.901 82.4431 173.748 81.8998C174.101 82.2935 175.266 83.4348 175.667 83.4348C174.658 82.5912 172.277 78.1454 173.188 78.3442C173.847 81.2565 175.619 82 177.238 83.9781C177.238 84.3182 176.325 83.4348 175.667 83.4348C175.619 83.5802 176.225 84.2659 176.378 84.4691C176.063 84.3154 175.212 83.6776 174.915 83.7777C174.737 83.837 174.758 84.1616 175.214 85.0166C174.859 84.9656 174.505 84.9135 174.15 84.9135C174.303 85.2071 174.403 85.5555 174.505 85.9011C173.681 85.5301 173.314 85.3339 173.253 85.5752C173.217 85.7206 173.293 86.0238 173.446 86.5402C173.122 86.3569 172.932 86.3287 172.836 86.4273C172.677 86.5896 172.779 87.0933 172.969 87.7762C172.673 87.2895 172.476 87.2867 172.355 87.5702C172.018 88.3547 172.253 91.3416 172.562 92.4238C172.763 93.1406 173.472 94.3976 173.978 93.8558C174.108 94.5725 174.21 94.907 174.363 95.0227C174.516 95.1412 174.721 95.0402 175.049 94.8914C175.314 94.9691 175.494 96.0949 176.08 96.1528C176.277 96.1725 176.518 96.0723 176.82 95.7762C177.396 96.6198 177.692 96.9358 177.954 96.9527C178.292 96.9702 178.572 96.5028 179.31 96.0244C179.37 96.5196 179.53 96.765 179.775 96.8344C180.319 96.9824 181.279 96.2685 182.504 95.4361C180.183 97.4339 179.884 98.6401 180.586 99.0988C181.486 99.6828 184.034 99.0297 186.045 97.218C186.885 96.4619 186.096 96.3884 185.689 95.5983C185.19 94.6191 186.113 94.4302 186.936 94.4074C186.936 94.4008 186.936 94.3965 186.936 94.3943C186.997 94.3943 187.055 94.3986 187.117 94.4008C187.126 94.4008 187.139 94.3993 187.15 94.3993C187.15 94.3993 187.15 94.4015 187.15 94.4037C187.971 94.4304 188.895 94.618 188.394 95.6001C187.989 96.3873 187.201 96.4636 188.041 97.2197C190.103 99.0808 192.74 99.7199 193.571 99.0454C194.177 98.5517 193.821 97.3624 191.58 95.4337C192.695 96.1913 193.59 96.8529 194.149 96.8542C194.484 96.8542 194.702 96.6202 194.773 96.0262C195.596 96.5524 195.851 97.0758 196.25 96.9234C196.486 96.8361 196.776 96.5002 197.266 95.7779C197.57 96.0741 197.812 96.1742 198.006 96.1545C198.592 96.0953 198.775 94.968 199.037 94.8917C199.365 95.04 199.571 95.1401 199.724 95.0244C199.877 94.9059 199.982 94.5743 200.108 93.8575C200.614 94.3952 201.32 93.1366 201.524 92.4256C201.851 91.2742 202.098 87.9656 201.66 87.4463C201.537 87.3011 201.361 87.3731 201.117 87.7738C201.34 86.9569 201.445 86.3967 201.119 86.3755C201.011 86.3667 200.855 86.4208 200.639 86.5419C200.741 86.1977 200.808 85.9481 200.83 85.776C200.897 85.2624 200.567 85.4555 199.58 85.9028C199.68 85.5572 199.781 85.2088 199.931 84.9138C199.58 84.9138 199.225 84.9619 198.871 85.0183C199.326 84.1633 199.346 83.8387 199.168 83.7795C198.874 83.678 198.023 84.3142 197.708 84.4708C197.858 84.2677 198.465 83.582 198.417 83.431C197.759 83.431 196.846 84.3199 196.846 83.977C198.465 82.0017 200.238 81.2583 200.897 78.3418C201.807 78.1456 199.426 82.5929 198.417 83.431C198.818 83.431 199.982 82.2952 200.338 81.9015C200.185 82.442 199.629 82.5929 199.629 83.678C200.491 84.2211 202.663 86.0975 203.321 87.2814C204.637 85.4584 205.244 84.2211 205.393 80.3171C205.902 65.0569 194.675 73.1553 194.522 77.7027C194.471 79.431 195.535 80.073 196.343 80.8617C196.747 81.3062 196.846 81.1623 197.352 80.9619C196.899 81.412 195.586 82.94 195.131 83.4761C195.23 82.5929 195.586 82.6931 195.586 81.8057C195.18 82.346 194.671 82.9866 194.165 83.328C194.317 82.5872 195.18 81.6517 194.928 81.1087C194.471 81.3062 193.35 83.2362 193.35 83.2362C193.653 82.5435 194.422 81.1622 194.269 80.3694C193.663 80.3694 193.119 82.2556 192.578 83.3604C192.928 81.9313 193.561 80.5188 193.258 79.6286C192.66 80.0505 192.404 81.6222 191.691 83.6003C191.726 82.4927 192.441 80.2128 192.651 79.1828C191.641 79.5326 190.355 84.7093 190.122 86.082C189.796 84.2534 191.297 79.2858 191.694 78.2755C190.146 79.4114 190.663 80.073 191.112 77.6802C190.798 77.8298 190.19 78.435 190.19 78.3871C190.307 77.6631 190.454 77.5094 190.476 77.1087C190.326 77.3062 189.881 77.5813 189.661 77.8862C189.679 77.5094 189.77 76.8151 189.82 76.6135C189.82 76.7095 189.172 77.1666 188.991 77.5306C189.016 76.9803 189.054 76.7178 189.061 76.4639C188.908 76.6135 188.61 76.7517 188.219 77.2456C188.208 76.725 188.259 76.6854 188.149 76.2226C187.897 76.5203 187.877 76.8053 187.575 77.1004C187.575 77.1511 187.544 76.4131 187.442 76.2622C187.308 76.3326 187.222 76.5712 187.125 76.7659L187.125 76.7642ZM156.249 79.7115C155.102 76.3803 154.161 71.0485 156.002 67.7032C156.645 66.535 158.284 65.6461 158.791 65.6461C160.679 82.096 160.887 81.6782 161.812 86.996C159.643 86.3737 156.978 81.8322 156.249 79.7115ZM180.091 92.5973C178.341 92.6325 177.467 91.405 177.473 90.1591C177.48 88.912 178.367 87.645 180.142 87.6069C182.03 87.566 182.885 88.9586 182.747 90.2806C182.625 91.4475 181.731 92.5662 180.091 92.5973ZM193.943 92.5973C192.195 92.6312 191.32 91.4022 191.324 90.1578C191.331 88.9107 192.22 87.645 193.993 87.6069C195.934 87.5647 196.784 89.0404 196.583 90.3963C196.417 91.5207 195.528 92.5662 193.943 92.5973ZM178.145 83.6788C176.984 81.804 174.202 78.9877 173.187 75.6268C173.187 79.0837 177.435 84.3182 178.145 83.6788ZM195.94 83.6767C197.098 81.8044 199.883 78.9882 200.897 75.6246C200.897 79.0842 196.643 84.3186 195.94 83.6767ZM196.102 252.017C184.651 192.479 176.358 157.712 176.358 154.051C180.882 152.103 180.959 152.148 184.329 151.21C187.377 156.371 189.552 159.049 194.041 163.803C194.28 166.256 194.44 172.432 194.709 174.914C188.649 183.775 188.126 183.677 187.377 186.619C189.361 200.329 191.058 204.744 198.933 216.121C196.421 221.167 194.922 237.475 203.176 240.754C203.295 242.923 203.48 245.143 203.701 247.402C204.606 247.157 205.506 247.03 206.393 247.03H212.217H212.639C216.137 236.991 224.387 228.736 223.681 214.672C223.447 210.112 221.41 205.814 220.274 201.379C216.481 203.299 216.694 203.403 211.409 203.901C212.038 208.069 213.085 209.905 213.714 214.106C205.151 222.855 211.586 232.345 204.416 238.557C198.201 243.964 199.956 218.401 201.738 214.977C193.394 206.614 191.345 197.205 190.394 186.619C193.409 180.703 199.784 173.271 202.441 168.115C193.469 161.756 189.23 155.613 185.125 149.731C185.601 149.731 186.743 149.219 187.248 149.219C191.549 155.428 195.015 161.508 203.343 166.572C205.519 162.333 207.145 157.355 207.87 152.596C206.673 152.596 207.555 152.652 206.809 152.652C206.104 156.815 204.587 160.705 202.596 164.541C198.681 160.915 195.189 152.492 193.671 148.415C197.14 145.881 197.995 145.01 200.624 142.039C200.169 141.304 200.393 141.593 199.855 140.81C196.792 143.365 195.686 144.159 192.664 146.933C182.482 149.501 182.482 149.295 175.678 152.266C174.096 155.566 175.483 159.154 169.616 159.647C167.419 147.5 177.509 142.919 185.068 138.564C185.93 134.743 185.717 131.077 187.377 127.512C190.782 120.201 193.976 116.562 196.519 110.608C196.898 109.716 197.266 108.765 197.619 107.745C197.771 107.299 197.922 106.837 198.068 106.363L198.109 106.369C198.485 105.215 198.799 104.184 199.064 103.127C199.263 102.337 199.387 101.521 199.514 100.631C199.629 99.8479 199.731 99.0027 199.83 98.053C196.685 101.123 189.904 102.51 187.096 102.595C187.096 102.595 187.096 102.601 187.096 102.604C184.37 102.556 177.435 101.17 174.255 98.0533C173.684 98.4441 173.55 100.373 173.989 104.733C174.084 105.693 174.212 106.78 174.366 107.988C174.5 109.025 174.656 110.159 174.834 111.385C174.94 112.126 175.059 112.899 175.18 113.816C175.385 114.993 175.575 115.98 175.75 116.892C176.058 118.523 176.325 119.928 176.561 121.177C177.824 127.853 178.313 130.294 180.634 140.285C180.189 140.437 180.403 140.613 179.675 140.894C178.297 135.313 178.449 135.228 174.714 120.044C174.45 118.976 174.167 117.834 173.864 116.605C173.705 115.966 173.541 115.299 173.353 114.431C173.153 113.637 172.97 112.992 172.786 112.321C172.383 110.849 171.99 109.257 171.602 107.636C171.241 106.129 170.882 104.59 170.525 103.086C170.067 101.157 169.606 99.2836 169.145 97.6145C167.465 91.5603 164.038 65.9455 175.113 70.8314C179.417 72.7404 183.621 74.1159 186.985 74.1456C187.023 74.1456 187.061 74.1456 187.096 74.1456C190.467 74.1146 194.671 72.7388 198.969 70.8314C210.048 65.9455 205.701 91.3855 204.94 97.6075C204.791 98.8547 204.562 100.284 204.281 101.741C204.076 102.805 203.863 103.89 203.611 104.927C203.422 105.679 203.265 106.424 203.095 107.123L203.127 107.125L202.842 108.217L201.871 111.624C201.63 112.471 201.37 113.186 201.159 113.787C200.692 115.088 200.326 115.885 200.046 116.39C198.771 118.696 199.308 114.95 200.605 125.677C204.575 128.212 205.191 130.137 205.141 134.917C238.429 132.279 243.757 158.032 227.793 196.012C230.811 201.667 235.149 207.148 237.289 213.219C241.339 224.691 243.104 236.059 239.18 247.03H252.704C268.246 247.03 273.982 234.882 273.983 220.742C273.99 165.958 273.983 113.718 273.983 58.9355H164.555C165.198 63.6266 165.967 68.4195 166.747 73.2745C161.99 88.2469 170.993 108.301 177.91 141.303L174.211 143.743C170.081 123.48 169.998 122.491 163.945 91.3241C162.429 83.5247 161.542 75.6476 160.813 67.7478C160.542 64.809 160.199 61.8714 159.866 58.9355H99.4398V220.742C99.4398 235.238 106.414 246.487 122.005 246.898H164.801H168.3C174.849 246.898 185.379 258.375 187.433 267.196C188.695 261.554 192.028 255.897 196.102 252.017ZM92.6089 50.7318H159.02C158.832 48.5083 158.691 46.2832 158.631 44.054C158.16 26.8552 161.564 4.40911 181.964 0.915676C199.387 -2.0712 207.639 12.7138 208.135 24.3747C208.387 30.2752 205.557 35.6113 199.063 36.6468C191.66 37.825 187.07 33.7813 185.857 28.6794C184.1 21.2807 191.101 12.9522 200.624 16.6685C197.768 4.62214 190.608 2.45786 182.488 3.97317C165.39 7.15886 162.368 29.9112 163.064 43.9272C163.175 46.1634 163.351 48.4322 163.579 50.7318H282.102C282.102 108.367 282.113 166 282.102 223.633C282.102 238.509 272.456 253.379 256.104 253.379H236.225C235.421 254.763 234.517 256.14 233.5 257.507C230.807 261.125 220.004 270.193 215.736 271.186C211.829 264.098 210.751 258.398 211.217 253.379H207.385C206.406 253.379 205.411 253.598 204.418 254.001C206.704 274.092 210.374 304.111 186.663 312.549C172.424 317.616 158.276 310.234 155.983 293.241C153.646 275.936 176.482 269.7 180.316 286.317C182.149 294.271 172.299 303.11 163.945 298.163C164.4 310.298 175.897 313.195 185.44 309.821C203.785 303.335 200.622 276.696 197.515 259.495C192.799 265.008 188.862 273.203 187.436 279.577C185.278 270.298 174.197 253.379 167.311 253.379H163.627H118.606C102.204 252.948 92.6089 238.885 92.6089 223.633V50.7318Z" fill="#004481"/>
</svg>
