<svg width="370" height="370" viewBox="0 0 370 370" fill="none" xmlns="http://www.w3.org/2000/svg">
<g clip-path="url(#clip0_27_90)">
<path d="M166.046 12.3957C105.56 18.7529 52.2714 55.5871 24.5989 110.184C-1.11028 161.135 -1.11028 220.126 24.7859 271.731C48.1579 318.382 90.7884 352.412 141.178 364.846C183.716 375.316 226.066 370.455 265.518 350.729C300.108 333.34 327.126 306.322 344.515 271.731C370.505 219.939 370.505 161.322 344.702 109.904C311.514 43.9011 239.715 4.72966 166.046 12.3957ZM137.813 81.6703C142.487 83.914 152.864 93.2628 155.669 97.8437L157.632 101.022L160.904 99.0591C166.514 95.6935 174.086 94.4782 191.195 93.9172C209.799 93.3563 222.42 94.9456 229.151 98.6851L232.984 100.835L235.134 97.6568C240.743 89.5233 252.71 80.5484 260.002 79.0526L262.9 78.4917L264.676 85.4098C266.733 93.7303 266.733 103.733 264.676 110.839L263.087 116.167L266.452 120C273.184 127.947 275.895 136.735 277.204 155.339C278.886 178.804 275.614 192.267 265.144 205.635C257.384 215.358 241.959 223.772 225.879 227.044L218.68 228.446L220.83 232.84C224.944 241.161 225.785 248.172 225.785 276.593V303.05H195.495H165.205L165.672 291.457C165.953 285.194 165.953 278.463 165.579 276.499C165.018 273.321 164.737 273.134 162.4 273.788C157.258 275.191 142.394 274.349 136.785 272.386C126.407 268.646 118.648 261.635 113.506 251.445C108.832 242.096 100.698 230.316 96.9586 227.605C89.6666 222.276 89.8536 220.78 97.5196 220.78C107.055 220.874 113.6 225.174 121.172 236.299C126.875 244.807 132.578 249.201 140.992 251.818C146.04 253.314 148.938 253.595 153.893 253.221C163.803 252.379 165.298 251.351 166.14 244.62C166.514 241.535 168.103 236.58 169.505 233.682L172.123 228.26L168.851 227.699C144.825 223.679 127.623 212.46 118.928 195.071C113.973 185.162 112.478 173.849 113.693 155.526C114.815 137.109 117.62 127.947 124.444 120L127.716 116.167L126.22 110.932C123.696 102.331 124.538 86.7187 127.81 80.268C128.838 78.2112 131.362 78.5852 137.813 81.6703Z" fill="black"/>
</g>
<defs>
<clipPath id="clip0_27_90">
<rect width="370" height="370" fill="white"/>
</clipPath>
</defs>
</svg>
