<svg width="355" height="355" viewBox="0 0 355 355" fill="none" xmlns="http://www.w3.org/2000/svg">
<g clip-path="url(#clip0_27_93)">
<path d="M0 177.5V355H177.5H355V177.5V-1.43051e-05H177.5H0V177.5ZM206.735 89.7941C221.353 93.6723 238.059 108.588 244.92 123.803C256.853 149.756 249.693 187.345 229.408 206.139L220.16 214.79L228.811 225.828C233.584 232.092 242.534 244.324 248.798 252.676L260.134 268.487H229.109H198.084L182.273 246.113C167.954 225.529 165.866 223.739 156.319 223.739H146.176V246.113V268.487H120.819H95.4622V177.5V86.5126H145.58C173.025 86.5126 200.471 88.0042 206.735 89.7941Z" fill="black"/>
<path d="M146.177 155.126V173.025H167.059C190.328 173.025 199.874 167.357 199.874 154.231C199.874 141.702 191.223 137.227 167.656 137.227H146.177V155.126Z" fill="black"/>
</g>
<defs>
<clipPath id="clip0_27_93">
<rect width="355" height="355" fill="white"/>
</clipPath>
</defs>
</svg>
