<svg width="358" height="358" viewBox="0 0 358 358" fill="none" xmlns="http://www.w3.org/2000/svg">
<path d="M28.7518 0.246173C19.1529 1.4768 10.8071 6.69017 5.43707 14.8123C3.04294 18.437 1.63332 21.838 0.626442 26.4025L0.111816 28.7519V178.776C0.111816 324.505 0.134191 328.868 0.536941 331.038C2.21507 339.966 7.36132 347.685 14.9464 352.652C18.5488 355.002 22.4197 356.546 27.0513 357.508C28.8637 357.866 37.0753 357.888 179.112 357.888H329.248L331.486 357.396C338.332 355.874 343.613 353.01 348.312 348.356C352.921 343.792 355.897 338.243 357.374 331.598L357.888 329.248V179V28.7519L357.374 26.4025C356.367 21.838 354.957 18.437 352.563 14.8123C347.685 7.42855 340.749 2.70742 331.709 0.626548L329.472 0.111923L179.895 0.0895483C93.1471 0.0671733 29.6692 0.134298 28.7518 0.246173ZM181.886 104.737C187.928 105.118 193.678 106.281 196.251 107.646C198.869 109.033 200.726 111.718 201.554 115.254C201.867 116.663 201.934 118.14 201.934 125.076C201.934 129.574 201.8 137.025 201.643 141.634C201.263 152.911 201.241 165.799 201.576 168.372C202.471 175.129 205.47 179.559 208.893 179.157C213.144 178.687 219.678 171.862 227.822 159.422C236.168 146.691 242.276 135.033 248.161 120.512C250.421 114.985 251.428 113.508 253.688 112.39L254.963 111.763L273.087 111.629C283.066 111.539 294.433 111.45 298.371 111.405C305.933 111.36 307.321 111.495 309.782 112.546C314.391 114.515 314.324 119.527 309.558 129.216C305.083 138.345 298.192 148.503 283.939 166.918C273.02 181.059 270.693 184.571 269.596 188.554C268.209 193.611 270.29 197.169 280.023 206.253C293.448 218.783 302.488 228.449 307.477 235.609C309.536 238.562 312.019 242.97 312.624 244.738C313.384 246.975 313.34 249.392 312.512 251.092C311.303 253.531 308.775 255.209 304.636 256.306L302.398 256.887L281.925 257.223C267.873 257.447 260.982 257.469 259.975 257.313C254.471 256.485 248.385 253.352 243.104 248.653C240.218 246.058 237.533 243.216 231.715 236.616C223.884 227.688 220.013 224.108 216.433 222.475C214.531 221.624 212.048 221.602 210.303 222.452C205.313 224.914 202.561 232.029 201.733 244.715C201.464 248.989 201.375 249.571 200.838 250.734C200.01 252.547 199.361 253.307 198.086 254.001C195.804 255.254 195.49 255.276 181.842 255.299C171.661 255.321 168.707 255.254 166.358 254.986C148.682 252.838 131.833 245.364 117.581 233.394C114.649 230.91 109.1 225.451 105.923 221.893C88.1351 202.002 67.7067 168.506 49.4711 129.328C45.2198 120.199 44.8842 119.304 44.8618 117.021C44.8618 114.829 45.1975 114.023 46.5623 113.083C49.0236 111.383 51.3506 111.226 75.0681 111.226L92.5206 111.204L94.3553 111.853C96.7718 112.681 97.9577 113.419 99.2331 114.829C100.486 116.238 100.755 116.73 103.328 122.727C108.183 134.049 112.546 142.663 118.431 152.486C128.41 169.133 135.145 177.389 140.135 179.09C146.221 181.148 149.353 175.152 150.382 159.422C150.673 155.014 150.517 141.074 150.136 135.816C149.689 129.887 148.413 124.718 146.78 122.212C144.587 118.834 141.097 116.753 136.018 115.724C134.026 115.321 133.914 115.276 133.847 114.694C133.735 113.799 134.697 112.345 136.577 110.6C140.023 107.378 144.431 105.856 152.463 105.051C154.32 104.872 156.446 104.693 157.184 104.648C160.764 104.469 178.642 104.514 181.886 104.737Z" fill="#0077FF"/>
</svg>
