<svg width="353" height="353" viewBox="0 0 353 353" fill="none" xmlns="http://www.w3.org/2000/svg">
<path d="M0 176.5V353H176.5H353V176.5V7.62939e-06H176.5H0V176.5ZM280.263 119.275C300.257 120.516 304.394 121.688 309.702 127.411C316.459 134.719 317.493 141.2 317.493 176.5C317.493 199.528 317.286 204.768 316.252 210.283C314.115 221.797 310.323 227.52 302.325 231.036C296.12 233.794 279.918 234.621 234.414 234.621C175.948 234.621 166.848 233.656 159.746 226.554C152.507 219.384 150.577 206.836 151.197 171.26C151.68 142.51 153.059 134.305 158.643 127.963C163.883 122.033 168.778 120.516 186.152 119.344C198.7 118.517 267.37 118.448 280.263 119.275ZM51.0195 151.473C53.0189 158.988 54.8115 165.4 55.0184 165.745C55.2941 166.296 58.8793 153.541 62.3266 139.752C62.7402 137.891 62.8092 137.891 68.6006 137.891C71.841 137.891 74.4609 138.097 74.4609 138.304C74.4609 138.511 71.3584 148.922 67.5664 161.47L60.6719 184.222V198.976V213.73H54.8115H48.9512V197.253V180.775L46.5381 172.57C45.2281 168.089 42.1256 158.574 39.6436 151.473C37.1615 144.303 35.1621 138.373 35.1621 138.166C35.1621 138.029 37.9199 137.891 41.2293 137.891H47.3654L51.0195 151.473ZM94.2482 157.54C98.316 158.712 102.039 162.366 103.487 166.572C104.866 170.364 104.866 201.251 103.556 204.974C101.419 210.973 96.3166 214.351 89.4221 214.42C84.458 214.42 81.3555 213.041 78.2529 209.387C74.8057 205.388 74.323 202.079 74.5988 183.739C74.8057 168.709 74.8746 167.744 76.4603 164.572C78.7355 159.953 83.6996 156.851 89.3531 156.575C90.1115 156.506 92.3178 156.988 94.2482 157.54ZM123.55 180.775L123.757 204.423L125.687 204.63C127.066 204.768 128.1 204.285 129.617 202.768L131.686 200.769V178.982V157.195H136.856H142.027V185.463V213.73H136.856H131.686V210.835V207.939L129.135 210.421C126.101 213.386 123.688 214.42 119.965 214.42C115.897 214.42 113.898 212.283 113.07 207.181C112.312 202.561 112.105 158.367 112.863 157.678C113.07 157.402 115.552 157.195 118.379 157.195H123.412L123.55 180.775Z" fill="#C91E1E"/>
<path d="M163.4 144.44V149.611H169.605H175.811V181.671V213.73H180.981H186.152V181.671V149.611H192.357H198.562V144.44V139.27H180.981H163.4V144.44Z" fill="#C91E1E"/>
<path d="M237.861 176.5V213.73H242.687H247.514V211.317C247.514 208.491 248.065 208.284 250.203 210.559C255.373 216.006 262.751 215.454 265.508 209.387C266.68 206.767 266.818 204.63 266.818 186.152C266.818 167.675 266.68 165.538 265.508 162.918C262.751 156.92 255.236 156.23 250.34 161.608C249.375 162.573 248.41 163.4 248.065 163.4C247.789 163.4 247.514 157.954 247.514 151.335V139.27H242.687H237.861V176.5ZM256.132 168.433C257.718 170.64 257.649 201.734 256.063 203.94C254.753 205.802 251.099 206.009 248.962 204.216C247.514 203.044 247.514 202.699 247.652 185.808L247.858 168.571L250.134 167.468C252.754 166.089 254.753 166.434 256.132 168.433Z" fill="#C91E1E"/>
<path d="M283.296 159.746C280.056 161.401 279.297 162.228 277.505 165.813L275.437 169.95V185.463C275.437 202.699 275.919 205.319 279.435 209.387C286.123 217.04 298.809 215.73 303.29 206.905C304.049 205.526 304.807 202.354 305.083 199.735L305.566 195.115H300.326H295.086V198.769C295.086 203.389 293.707 205.457 290.673 205.457C286.192 205.457 284.813 202.561 284.744 192.84V187.531H295.224H305.635L305.221 178.499C304.876 171.053 304.462 168.847 303.153 165.882C299.705 158.367 291.225 155.747 283.296 159.746ZM294.121 168.571C294.81 169.605 295.224 171.95 295.293 174.914L295.431 179.602L289.984 179.809L284.537 180.016L284.951 175.052C285.503 168.64 286.675 166.848 290.26 166.848C292.397 166.848 293.224 167.192 294.121 168.571Z" fill="#C91E1E"/>
<path d="M200.631 183.739C200.631 210.628 200.769 211.938 204.009 213.73C207.112 215.385 213.179 213.524 216.419 210.007C218.695 207.594 219.246 207.732 219.246 210.973V213.73H224.072H228.898V186.152V158.574H224.072H219.246V179.809V201.045L216.902 203.32C215.178 204.974 214.075 205.526 212.627 205.319L210.628 205.112L210.421 181.809L210.283 158.574H205.457H200.631V183.739Z" fill="#C91E1E"/>
<path d="M86.94 167.468C84.9406 169.468 84.6648 171.812 84.9406 187.6C85.1474 200.493 85.2853 202.01 86.4574 203.32C88.2499 205.319 91.3525 205.25 92.7314 203.113C93.6966 201.665 93.8345 199.045 93.6277 184.842C93.4898 174.983 93.145 168.02 92.7314 167.606C91.1456 166.089 88.3878 166.02 86.94 167.468Z" fill="#C91E1E"/>
</svg>
